<svg xmlns="http://www.w3.org/2000/svg" xmlns:xlink="http://www.w3.org/1999/xlink" width="940" zoomAndPan="magnify" viewBox="0 0 705 591.000005" height="788" preserveAspectRatio="xMidYMid meet" version="1.0"><defs><clipPath id="af64825ebf"><path d="M 70.625 63 L 586 63 L 586 520 L 70.625 520 Z M 70.625 63 " clip-rule="nonzero"/></clipPath><clipPath id="9a5795e136"><path d="M 70.625 140 L 586 140 L 586 153 L 70.625 153 Z M 70.625 140 " clip-rule="nonzero"/></clipPath></defs><path fill="#3c58a0" d="M 95.707031 70.0625 L 556.886719 70.0625 C 569.320312 70.0625 579.496094 80.238281 579.496094 92.667969 L 579.496094 160.117188 C 579.496094 172.546875 569.320312 182.722656 556.886719 182.722656 L 95.707031 182.722656 C 83.273438 182.722656 73.097656 172.550781 73.097656 160.117188 L 73.097656 92.667969 C 73.097656 80.234375 83.273438 70.0625 95.707031 70.0625 Z M 95.707031 70.0625 " fill-opacity="1" fill-rule="evenodd"/><path fill="#e5ecf5" d="M 158.800781 102.539062 C 155.675781 102.539062 153.148438 105.070312 153.148438 108.191406 C 153.148438 111.3125 155.675781 113.84375 158.800781 113.84375 L 197.832031 113.84375 C 200.953125 113.84375 203.484375 111.3125 203.484375 108.191406 C 203.484375 105.070312 200.953125 102.539062 197.832031 102.539062 Z M 158.800781 102.539062 " fill-opacity="1" fill-rule="nonzero"/><path fill="#e5ecf5" d="M 187.234375 91.414062 C 184.894531 89.367188 181.335938 89.601562 179.285156 91.941406 C 177.238281 94.285156 177.476562 97.84375 179.816406 99.890625 L 189.285156 108.191406 L 179.816406 116.492188 C 177.476562 118.539062 177.238281 122.097656 179.285156 124.4375 C 181.335938 126.78125 184.894531 127.015625 187.234375 124.96875 L 201.1875 112.738281 C 201.507812 112.503906 201.808594 112.230469 202.082031 111.917969 C 204.140625 109.570312 203.902344 106 201.558594 103.941406 L 201.539062 103.953125 Z M 187.234375 91.414062 " fill-opacity="1" fill-rule="nonzero"/><path fill="#e5ecf5" d="M 137.78125 113.84375 C 140.902344 113.84375 143.433594 111.3125 143.433594 108.191406 C 143.433594 105.070312 140.902344 102.539062 137.78125 102.539062 L 98.75 102.539062 L 98.75 113.84375 Z M 137.78125 113.84375 " fill-opacity="1" fill-rule="nonzero"/><path fill="#e5ecf5" d="M 116.765625 99.890625 C 119.105469 97.84375 119.34375 94.285156 117.292969 91.945312 C 115.246094 89.601562 111.6875 89.367188 109.347656 91.414062 L 95.039062 103.953125 L 95.023438 103.941406 C 92.675781 106 92.441406 109.570312 94.5 111.917969 C 94.773438 112.230469 95.074219 112.503906 95.394531 112.738281 L 109.347656 124.96875 C 111.6875 127.015625 115.246094 126.78125 117.292969 124.4375 C 119.34375 122.097656 119.105469 118.539062 116.765625 116.492188 L 107.296875 108.191406 Z M 116.765625 99.890625 " fill-opacity="1" fill-rule="nonzero"/><path fill="#fd481e" d="M 559.027344 108.222656 C 559.027344 108.835938 559 109.449219 558.9375 110.058594 C 558.878906 110.667969 558.789062 111.277344 558.667969 111.878906 C 558.550781 112.480469 558.398438 113.074219 558.222656 113.660156 C 558.042969 114.246094 557.835938 114.824219 557.601562 115.390625 C 557.367188 115.957031 557.105469 116.511719 556.816406 117.054688 C 556.527344 117.59375 556.210938 118.121094 555.871094 118.632812 C 555.53125 119.140625 555.164062 119.632812 554.777344 120.109375 C 554.386719 120.582031 553.976562 121.035156 553.542969 121.46875 C 553.109375 121.902344 552.652344 122.316406 552.179688 122.703125 C 551.703125 123.09375 551.210938 123.457031 550.703125 123.800781 C 550.191406 124.140625 549.667969 124.457031 549.125 124.746094 C 548.585938 125.035156 548.03125 125.296875 547.464844 125.53125 C 546.898438 125.765625 546.320312 125.972656 545.734375 126.152344 C 545.144531 126.328125 544.550781 126.476562 543.949219 126.597656 C 543.347656 126.71875 542.742188 126.808594 542.128906 126.867188 C 541.519531 126.925781 540.90625 126.957031 540.292969 126.957031 C 539.679688 126.957031 539.070312 126.925781 538.457031 126.867188 C 537.847656 126.808594 537.242188 126.71875 536.640625 126.597656 C 536.039062 126.476562 535.441406 126.328125 534.855469 126.152344 C 534.269531 125.972656 533.691406 125.765625 533.125 125.53125 C 532.558594 125.296875 532.003906 125.035156 531.460938 124.746094 C 530.921875 124.457031 530.394531 124.140625 529.886719 123.800781 C 529.375 123.457031 528.882812 123.09375 528.410156 122.703125 C 527.933594 122.316406 527.480469 121.902344 527.046875 121.46875 C 526.613281 121.035156 526.203125 120.582031 525.8125 120.109375 C 525.421875 119.632812 525.058594 119.140625 524.714844 118.632812 C 524.375 118.121094 524.0625 117.59375 523.769531 117.054688 C 523.480469 116.511719 523.21875 115.957031 522.984375 115.390625 C 522.75 114.824219 522.542969 114.246094 522.367188 113.660156 C 522.1875 113.074219 522.039062 112.480469 521.917969 111.878906 C 521.800781 111.277344 521.710938 110.667969 521.648438 110.058594 C 521.589844 109.449219 521.558594 108.835938 521.558594 108.222656 C 521.558594 107.609375 521.589844 106.996094 521.648438 106.386719 C 521.710938 105.777344 521.800781 105.167969 521.917969 104.566406 C 522.039062 103.964844 522.1875 103.371094 522.367188 102.785156 C 522.542969 102.195312 522.75 101.621094 522.984375 101.054688 C 523.21875 100.484375 523.480469 99.933594 523.773438 99.390625 C 524.0625 98.851562 524.375 98.324219 524.714844 97.8125 C 525.058594 97.304688 525.421875 96.8125 525.8125 96.335938 C 526.203125 95.863281 526.613281 95.410156 527.046875 94.976562 C 527.480469 94.542969 527.933594 94.128906 528.410156 93.742188 C 528.882812 93.351562 529.375 92.984375 529.886719 92.644531 C 530.394531 92.304688 530.921875 91.988281 531.460938 91.699219 C 532.003906 91.410156 532.558594 91.148438 533.125 90.914062 C 533.691406 90.679688 534.269531 90.472656 534.855469 90.292969 C 535.441406 90.117188 536.039062 89.96875 536.640625 89.847656 C 537.242188 89.726562 537.847656 89.636719 538.457031 89.578125 C 539.070312 89.519531 539.679688 89.488281 540.292969 89.488281 C 540.90625 89.488281 541.519531 89.519531 542.128906 89.578125 C 542.742188 89.636719 543.347656 89.726562 543.949219 89.847656 C 544.550781 89.96875 545.144531 90.117188 545.730469 90.292969 C 546.320312 90.472656 546.898438 90.679688 547.464844 90.914062 C 548.03125 91.148438 548.585938 91.410156 549.125 91.699219 C 549.667969 91.988281 550.191406 92.304688 550.703125 92.644531 C 551.210938 92.984375 551.703125 93.351562 552.179688 93.742188 C 552.652344 94.128906 553.109375 94.542969 553.542969 94.976562 C 553.976562 95.410156 554.386719 95.863281 554.777344 96.335938 C 555.164062 96.8125 555.53125 97.304688 555.871094 97.8125 C 556.210938 98.324219 556.527344 98.851562 556.816406 99.390625 C 557.105469 99.933594 557.367188 100.484375 557.601562 101.054688 C 557.835938 101.621094 558.042969 102.195312 558.222656 102.785156 C 558.398438 103.371094 558.550781 103.964844 558.667969 104.566406 C 558.789062 105.167969 558.878906 105.777344 558.9375 106.386719 C 559 106.996094 559.027344 107.609375 559.027344 108.222656 Z M 559.027344 108.222656 " fill-opacity="1" fill-rule="nonzero"/><path fill="#32d736" d="M 503.566406 108.222656 C 503.566406 108.835938 503.535156 109.449219 503.476562 110.058594 C 503.417969 110.667969 503.328125 111.277344 503.207031 111.878906 C 503.085938 112.480469 502.9375 113.074219 502.761719 113.660156 C 502.582031 114.246094 502.375 114.824219 502.140625 115.390625 C 501.90625 115.957031 501.644531 116.511719 501.355469 117.054688 C 501.066406 117.59375 500.75 118.121094 500.410156 118.632812 C 500.066406 119.140625 499.703125 119.632812 499.3125 120.109375 C 498.925781 120.582031 498.511719 121.035156 498.078125 121.46875 C 497.644531 121.902344 497.191406 122.316406 496.71875 122.703125 C 496.242188 123.09375 495.75 123.457031 495.238281 123.800781 C 494.730469 124.140625 494.203125 124.457031 493.664062 124.746094 C 493.121094 125.035156 492.566406 125.296875 492 125.53125 C 491.433594 125.765625 490.855469 125.972656 490.269531 126.152344 C 489.683594 126.328125 489.089844 126.476562 488.488281 126.597656 C 487.886719 126.71875 487.277344 126.808594 486.667969 126.867188 C 486.058594 126.925781 485.445312 126.957031 484.832031 126.957031 C 484.21875 126.957031 483.605469 126.925781 482.996094 126.867188 C 482.386719 126.808594 481.777344 126.71875 481.175781 126.597656 C 480.574219 126.476562 479.980469 126.328125 479.394531 126.152344 C 478.804688 125.972656 478.230469 125.765625 477.664062 125.53125 C 477.09375 125.296875 476.542969 125.035156 476 124.746094 C 475.460938 124.457031 474.933594 124.140625 474.421875 123.800781 C 473.914062 123.457031 473.421875 123.09375 472.945312 122.703125 C 472.472656 122.316406 472.019531 121.902344 471.585938 121.46875 C 471.152344 121.035156 470.738281 120.582031 470.351562 120.109375 C 469.960938 119.632812 469.59375 119.140625 469.253906 118.632812 C 468.914062 118.121094 468.597656 117.59375 468.308594 117.054688 C 468.019531 116.511719 467.757812 115.957031 467.523438 115.390625 C 467.289062 114.824219 467.082031 114.246094 466.902344 113.660156 C 466.726562 113.074219 466.578125 112.480469 466.457031 111.878906 C 466.335938 111.277344 466.246094 110.667969 466.1875 110.058594 C 466.128906 109.449219 466.097656 108.835938 466.097656 108.222656 C 466.097656 107.609375 466.128906 106.996094 466.1875 106.386719 C 466.246094 105.777344 466.335938 105.167969 466.457031 104.566406 C 466.578125 103.964844 466.726562 103.371094 466.902344 102.785156 C 467.082031 102.195312 467.289062 101.621094 467.523438 101.054688 C 467.757812 100.484375 468.019531 99.933594 468.308594 99.390625 C 468.597656 98.851562 468.914062 98.324219 469.253906 97.8125 C 469.59375 97.304688 469.960938 96.8125 470.351562 96.335938 C 470.738281 95.863281 471.152344 95.410156 471.585938 94.976562 C 472.019531 94.542969 472.472656 94.128906 472.945312 93.742188 C 473.421875 93.351562 473.914062 92.984375 474.421875 92.644531 C 474.933594 92.304688 475.460938 91.988281 476 91.699219 C 476.542969 91.410156 477.09375 91.148438 477.664062 90.914062 C 478.230469 90.679688 478.804688 90.472656 479.394531 90.292969 C 479.980469 90.117188 480.574219 89.96875 481.175781 89.847656 C 481.777344 89.726562 482.386719 89.636719 482.996094 89.578125 C 483.605469 89.519531 484.21875 89.488281 484.832031 89.488281 C 485.445312 89.488281 486.058594 89.519531 486.667969 89.578125 C 487.277344 89.636719 487.886719 89.726562 488.488281 89.847656 C 489.089844 89.96875 489.683594 90.117188 490.269531 90.292969 C 490.855469 90.472656 491.433594 90.679688 492 90.914062 C 492.566406 91.148438 493.121094 91.410156 493.664062 91.699219 C 494.203125 91.988281 494.730469 92.304688 495.238281 92.644531 C 495.75 92.984375 496.242188 93.351562 496.71875 93.742188 C 497.191406 94.128906 497.644531 94.542969 498.078125 94.976562 C 498.511719 95.410156 498.925781 95.863281 499.3125 96.335938 C 499.703125 96.8125 500.066406 97.304688 500.410156 97.8125 C 500.75 98.324219 501.066406 98.851562 501.355469 99.390625 C 501.644531 99.933594 501.90625 100.484375 502.140625 101.054688 C 502.375 101.621094 502.582031 102.195312 502.761719 102.785156 C 502.9375 103.371094 503.085938 103.964844 503.207031 104.566406 C 503.328125 105.167969 503.417969 105.777344 503.476562 106.386719 C 503.535156 106.996094 503.566406 107.609375 503.566406 108.222656 Z M 503.566406 108.222656 " fill-opacity="1" fill-rule="nonzero"/><path fill="#17ace8" d="M 448.195312 108.222656 C 448.195312 108.835938 448.167969 109.449219 448.105469 110.058594 C 448.046875 110.667969 447.957031 111.277344 447.835938 111.878906 C 447.71875 112.480469 447.570312 113.074219 447.390625 113.660156 C 447.210938 114.246094 447.003906 114.824219 446.769531 115.390625 C 446.535156 115.957031 446.273438 116.511719 445.984375 117.054688 C 445.695312 117.59375 445.378906 118.121094 445.039062 118.632812 C 444.699219 119.140625 444.332031 119.632812 443.945312 120.109375 C 443.554688 120.582031 443.144531 121.035156 442.710938 121.46875 C 442.277344 121.902344 441.820312 122.316406 441.347656 122.703125 C 440.875 123.09375 440.382812 123.457031 439.871094 123.800781 C 439.359375 124.140625 438.835938 124.457031 438.292969 124.746094 C 437.753906 125.035156 437.199219 125.296875 436.632812 125.53125 C 436.066406 125.765625 435.488281 125.972656 434.902344 126.152344 C 434.3125 126.328125 433.71875 126.476562 433.117188 126.597656 C 432.515625 126.71875 431.910156 126.808594 431.296875 126.867188 C 430.6875 126.925781 430.074219 126.957031 429.460938 126.957031 C 428.847656 126.957031 428.238281 126.925781 427.625 126.867188 C 427.015625 126.808594 426.410156 126.71875 425.808594 126.597656 C 425.207031 126.476562 424.609375 126.328125 424.023438 126.152344 C 423.4375 125.972656 422.859375 125.765625 422.292969 125.53125 C 421.726562 125.296875 421.171875 125.035156 420.628906 124.746094 C 420.089844 124.457031 419.5625 124.140625 419.054688 123.800781 C 418.542969 123.457031 418.050781 123.09375 417.578125 122.703125 C 417.101562 122.316406 416.648438 121.902344 416.214844 121.46875 C 415.78125 121.035156 415.371094 120.582031 414.980469 120.109375 C 414.589844 119.632812 414.226562 119.140625 413.886719 118.632812 C 413.542969 118.121094 413.230469 117.59375 412.941406 117.054688 C 412.648438 116.511719 412.386719 115.957031 412.152344 115.390625 C 411.917969 114.824219 411.710938 114.246094 411.535156 113.660156 C 411.355469 113.074219 411.207031 112.480469 411.085938 111.878906 C 410.96875 111.277344 410.878906 110.667969 410.816406 110.058594 C 410.757812 109.449219 410.726562 108.835938 410.726562 108.222656 C 410.726562 107.609375 410.757812 106.996094 410.816406 106.386719 C 410.878906 105.777344 410.96875 105.167969 411.085938 104.566406 C 411.207031 103.964844 411.355469 103.371094 411.535156 102.785156 C 411.710938 102.195312 411.917969 101.621094 412.152344 101.054688 C 412.386719 100.484375 412.648438 99.933594 412.941406 99.390625 C 413.230469 98.851562 413.542969 98.324219 413.886719 97.8125 C 414.226562 97.304688 414.589844 96.8125 414.980469 96.335938 C 415.371094 95.863281 415.78125 95.410156 416.214844 94.976562 C 416.648438 94.542969 417.101562 94.128906 417.578125 93.742188 C 418.050781 93.351562 418.542969 92.984375 419.054688 92.644531 C 419.5625 92.304688 420.089844 91.988281 420.628906 91.699219 C 421.171875 91.410156 421.726562 91.148438 422.292969 90.914062 C 422.859375 90.679688 423.4375 90.472656 424.023438 90.292969 C 424.609375 90.117188 425.207031 89.96875 425.808594 89.847656 C 426.410156 89.726562 427.015625 89.636719 427.625 89.578125 C 428.238281 89.519531 428.847656 89.488281 429.460938 89.488281 C 430.074219 89.488281 430.6875 89.519531 431.296875 89.578125 C 431.910156 89.636719 432.515625 89.726562 433.117188 89.847656 C 433.71875 89.96875 434.3125 90.117188 434.902344 90.292969 C 435.488281 90.472656 436.066406 90.679688 436.632812 90.914062 C 437.199219 91.148438 437.753906 91.410156 438.292969 91.699219 C 438.835938 91.988281 439.359375 92.304688 439.871094 92.644531 C 440.382812 92.984375 440.875 93.351562 441.347656 93.742188 C 441.820312 94.128906 442.277344 94.542969 442.710938 94.976562 C 443.144531 95.410156 443.554688 95.863281 443.945312 96.335938 C 444.332031 96.8125 444.699219 97.304688 445.039062 97.8125 C 445.378906 98.324219 445.695312 98.851562 445.984375 99.390625 C 446.273438 99.933594 446.535156 100.484375 446.769531 101.054688 C 447.003906 101.621094 447.210938 102.195312 447.390625 102.785156 C 447.570312 103.371094 447.71875 103.964844 447.835938 104.566406 C 447.957031 105.167969 448.046875 105.777344 448.105469 106.386719 C 448.167969 106.996094 448.195312 107.609375 448.195312 108.222656 Z M 448.195312 108.222656 " fill-opacity="1" fill-rule="nonzero"/><path fill="#e6e6e6" d="M 73.097656 146.320312 L 73.097656 490.738281 C 73.097656 503.171875 83.273438 513.34375 95.707031 513.34375 L 556.886719 513.34375 C 569.320312 513.34375 579.496094 503.171875 579.496094 490.738281 L 579.496094 146.320312 Z M 73.097656 146.320312 " fill-opacity="1" fill-rule="evenodd"/><path fill="#fdb441" d="M 504.394531 400.203125 L 522.222656 394.496094 L 531.421875 415.808594 C 530.386719 424.996094 526.328125 436.027344 517.742188 444.882812 C 501.789062 461.335938 474.101562 458.148438 474.101562 458.148438 C 474.101562 458.148438 492.023438 450.453125 492.050781 427.359375 C 492.070312 414.410156 498.632812 405.515625 504.394531 400.199219 Z M 504.394531 400.203125 " fill-opacity="1" fill-rule="evenodd"/><path fill="#667fb0" d="M 312.546875 383.742188 C 309.132812 383.742188 306.363281 386.511719 306.363281 389.925781 C 306.363281 393.339844 309.132812 396.109375 312.546875 396.109375 L 453.839844 396.109375 C 457.253906 396.109375 460.023438 393.339844 460.023438 389.925781 C 460.023438 386.511719 457.253906 383.742188 453.839844 383.742188 Z M 312.546875 383.742188 " fill-opacity="1" fill-rule="nonzero"/><path fill="#667fb0" d="M 312.546875 417.652344 C 309.132812 417.652344 306.363281 420.421875 306.363281 423.835938 C 306.363281 427.25 309.132812 430.019531 312.546875 430.019531 L 453.839844 430.019531 C 457.253906 430.019531 460.023438 427.25 460.023438 423.835938 C 460.023438 420.421875 457.253906 417.652344 453.839844 417.652344 Z M 312.546875 417.652344 " fill-opacity="1" fill-rule="nonzero"/><path fill="#667fb0" d="M 312.546875 451.5625 C 309.132812 451.5625 306.363281 454.332031 306.363281 457.746094 C 306.363281 461.160156 309.132812 463.929688 312.546875 463.929688 L 453.839844 463.929688 C 457.253906 463.929688 460.023438 461.160156 460.023438 457.746094 C 460.023438 454.332031 457.253906 451.5625 453.839844 451.5625 Z M 312.546875 451.5625 " fill-opacity="1" fill-rule="nonzero"/><path fill="#fb1466" d="M 123.398438 367.539062 L 275.875 367.539062 L 275.875 480.132812 L 123.398438 480.132812 Z M 123.398438 367.539062 " fill-opacity="1" fill-rule="evenodd"/><path fill="#667fb0" d="M 376.5625 234.652344 C 373.144531 234.652344 370.378906 237.421875 370.378906 240.835938 C 370.378906 244.25 373.144531 247.019531 376.5625 247.019531 L 529.15625 247.019531 C 532.570312 247.019531 535.339844 244.25 535.339844 240.835938 C 535.339844 237.421875 532.570312 234.652344 529.15625 234.652344 Z M 376.5625 234.652344 " fill-opacity="1" fill-rule="nonzero"/><path fill="#667fb0" d="M 376.5625 268.5625 C 373.144531 268.5625 370.378906 271.332031 370.378906 274.746094 C 370.378906 278.160156 373.144531 280.929688 376.5625 280.929688 L 529.15625 280.929688 C 532.570312 280.929688 535.339844 278.160156 535.339844 274.746094 C 535.339844 271.332031 532.570312 268.5625 529.15625 268.5625 Z M 376.5625 268.5625 " fill-opacity="1" fill-rule="nonzero"/><path fill="#667fb0" d="M 376.5625 302.472656 C 373.144531 302.472656 370.378906 305.242188 370.378906 308.65625 C 370.378906 312.070312 373.144531 314.839844 376.5625 314.839844 L 529.15625 314.839844 C 532.570312 314.839844 535.339844 312.070312 535.339844 308.65625 C 535.339844 305.242188 532.570312 302.472656 529.15625 302.472656 Z M 376.5625 302.472656 " fill-opacity="1" fill-rule="nonzero"/><path fill="#667fb0" d="M 376.5625 200.742188 C 373.144531 200.742188 370.378906 203.511719 370.378906 206.925781 C 370.378906 210.339844 373.144531 213.109375 376.5625 213.109375 L 529.15625 213.109375 C 532.570312 213.109375 535.339844 210.339844 535.339844 206.925781 C 535.339844 203.511719 532.570312 200.742188 529.15625 200.742188 Z M 376.5625 200.742188 " fill-opacity="1" fill-rule="nonzero"/><path fill="#194b5f" d="M 131.839844 238.066406 L 316.21875 238.066406 L 316.21875 277.574219 L 131.839844 277.574219 Z M 131.839844 238.066406 " fill-opacity="1" fill-rule="evenodd"/><path fill="#206380" d="M 123.398438 179.449219 L 324.660156 179.449219 L 324.660156 244.1875 L 123.398438 244.1875 Z M 123.398438 179.449219 " fill-opacity="1" fill-rule="evenodd"/><path fill="#fed402" d="M 300.914062 211.820312 C 300.914062 212.539062 300.847656 213.25 300.707031 213.953125 C 300.566406 214.660156 300.359375 215.34375 300.082031 216.007812 C 299.808594 216.671875 299.46875 217.300781 299.070312 217.898438 C 298.671875 218.496094 298.21875 219.050781 297.710938 219.558594 C 297.203125 220.066406 296.648438 220.519531 296.050781 220.917969 C 295.453125 221.316406 294.824219 221.65625 294.160156 221.929688 C 293.496094 222.207031 292.8125 222.414062 292.105469 222.554688 C 291.402344 222.691406 290.691406 222.761719 289.972656 222.761719 C 289.253906 222.761719 288.542969 222.691406 287.835938 222.554688 C 287.132812 222.414062 286.449219 222.207031 285.785156 221.929688 C 285.121094 221.65625 284.488281 221.316406 283.890625 220.917969 C 283.292969 220.519531 282.742188 220.066406 282.234375 219.558594 C 281.726562 219.050781 281.269531 218.496094 280.871094 217.898438 C 280.472656 217.300781 280.136719 216.671875 279.859375 216.007812 C 279.585938 215.34375 279.378906 214.660156 279.238281 213.953125 C 279.097656 213.25 279.027344 212.539062 279.027344 211.820312 C 279.027344 211.101562 279.097656 210.390625 279.238281 209.683594 C 279.378906 208.980469 279.585938 208.296875 279.859375 207.632812 C 280.136719 206.96875 280.472656 206.335938 280.871094 205.738281 C 281.269531 205.140625 281.726562 204.589844 282.234375 204.082031 C 282.742188 203.574219 283.292969 203.117188 283.890625 202.71875 C 284.488281 202.320312 285.121094 201.984375 285.785156 201.707031 C 286.449219 201.433594 287.132812 201.226562 287.835938 201.085938 C 288.542969 200.945312 289.253906 200.875 289.972656 200.875 C 290.691406 200.875 291.402344 200.945312 292.105469 201.085938 C 292.8125 201.226562 293.496094 201.433594 294.160156 201.707031 C 294.824219 201.984375 295.453125 202.320312 296.050781 202.71875 C 296.648438 203.117188 297.203125 203.574219 297.710938 204.082031 C 298.21875 204.589844 298.671875 205.140625 299.070312 205.738281 C 299.46875 206.335938 299.808594 206.96875 300.082031 207.632812 C 300.359375 208.296875 300.566406 208.980469 300.707031 209.683594 C 300.847656 210.390625 300.914062 211.101562 300.914062 211.820312 Z M 300.914062 211.820312 " fill-opacity="1" fill-rule="nonzero"/><path fill="#206380" d="M 123.398438 271.363281 L 324.660156 271.363281 L 324.660156 336.097656 L 123.398438 336.097656 Z M 123.398438 271.363281 " fill-opacity="1" fill-rule="evenodd"/><path fill="#fed402" d="M 300.914062 303.730469 C 300.914062 304.449219 300.847656 305.160156 300.707031 305.863281 C 300.566406 306.570312 300.359375 307.253906 300.082031 307.917969 C 299.808594 308.582031 299.46875 309.210938 299.070312 309.808594 C 298.671875 310.40625 298.21875 310.960938 297.710938 311.46875 C 297.203125 311.976562 296.648438 312.429688 296.050781 312.828125 C 295.453125 313.230469 294.824219 313.566406 294.160156 313.839844 C 293.496094 314.117188 292.8125 314.324219 292.105469 314.464844 C 291.402344 314.605469 290.691406 314.675781 289.972656 314.675781 C 289.253906 314.675781 288.542969 314.605469 287.835938 314.464844 C 287.132812 314.324219 286.449219 314.117188 285.785156 313.839844 C 285.121094 313.566406 284.488281 313.230469 283.890625 312.828125 C 283.292969 312.429688 282.742188 311.976562 282.234375 311.46875 C 281.726562 310.960938 281.269531 310.40625 280.871094 309.808594 C 280.472656 309.210938 280.136719 308.582031 279.859375 307.917969 C 279.585938 307.253906 279.378906 306.570312 279.238281 305.863281 C 279.097656 305.160156 279.027344 304.449219 279.027344 303.730469 C 279.027344 303.011719 279.097656 302.300781 279.238281 301.59375 C 279.378906 300.890625 279.585938 300.207031 279.859375 299.542969 C 280.136719 298.878906 280.472656 298.246094 280.871094 297.648438 C 281.269531 297.050781 281.726562 296.5 282.234375 295.992188 C 282.742188 295.484375 283.292969 295.03125 283.890625 294.628906 C 284.488281 294.230469 285.121094 293.894531 285.785156 293.621094 C 286.449219 293.34375 287.132812 293.136719 287.835938 292.996094 C 288.542969 292.855469 289.253906 292.785156 289.972656 292.785156 C 290.691406 292.785156 291.402344 292.855469 292.105469 292.996094 C 292.8125 293.136719 293.496094 293.34375 294.160156 293.621094 C 294.824219 293.894531 295.453125 294.230469 296.050781 294.628906 C 296.648438 295.03125 297.203125 295.484375 297.710938 295.992188 C 298.21875 296.5 298.671875 297.050781 299.070312 297.648438 C 299.46875 298.246094 299.808594 298.878906 300.082031 299.542969 C 300.359375 300.207031 300.566406 300.890625 300.707031 301.59375 C 300.847656 302.300781 300.914062 303.011719 300.914062 303.730469 Z M 300.914062 303.730469 " fill-opacity="1" fill-rule="nonzero"/><path fill="#32d736" d="M 227.089844 200.875 L 257.882812 200.875 L 257.882812 222.761719 L 227.089844 222.761719 Z M 227.089844 200.875 " fill-opacity="1" fill-rule="evenodd"/><path fill="#e5ecf5" d="M 198.191406 194.746094 C 194.785156 194.746094 192.027344 197.503906 192.027344 200.910156 C 192.027344 204.3125 194.785156 207.074219 198.191406 207.074219 L 205.871094 207.074219 C 209.273438 207.074219 212.035156 204.3125 212.035156 200.910156 C 212.035156 197.503906 209.273438 194.746094 205.871094 194.746094 Z M 198.191406 194.746094 " fill-opacity="1" fill-rule="nonzero"/><path fill="#e5ecf5" d="M 172.640625 194.746094 C 169.234375 194.746094 166.476562 197.503906 166.476562 200.910156 C 166.476562 204.3125 169.234375 207.074219 172.640625 207.074219 L 180.320312 207.074219 C 183.722656 207.074219 186.484375 204.3125 186.484375 200.910156 C 186.484375 197.503906 183.722656 194.746094 180.320312 194.746094 Z M 172.640625 194.746094 " fill-opacity="1" fill-rule="nonzero"/><path fill="#e5ecf5" d="M 147.085938 194.746094 C 143.683594 194.746094 140.921875 197.503906 140.921875 200.910156 C 140.921875 204.3125 143.683594 207.074219 147.085938 207.074219 L 154.769531 207.074219 C 158.171875 207.074219 160.933594 204.3125 160.933594 200.910156 C 160.933594 197.503906 158.171875 194.746094 154.769531 194.746094 Z M 147.085938 194.746094 " fill-opacity="1" fill-rule="nonzero"/><path fill="#e5ecf5" d="M 198.191406 216.625 C 194.785156 216.625 192.027344 219.386719 192.027344 222.789062 C 192.027344 226.195312 194.785156 228.953125 198.191406 228.953125 L 205.871094 228.953125 C 209.273438 228.953125 212.035156 226.195312 212.035156 222.789062 C 212.035156 219.386719 209.273438 216.625 205.871094 216.625 Z M 198.191406 216.625 " fill-opacity="1" fill-rule="nonzero"/><path fill="#e5ecf5" d="M 172.640625 216.625 C 169.234375 216.625 166.476562 219.386719 166.476562 222.789062 C 166.476562 226.195312 169.234375 228.953125 172.640625 228.953125 L 180.320312 228.953125 C 183.722656 228.953125 186.484375 226.195312 186.484375 222.789062 C 186.484375 219.386719 183.722656 216.625 180.320312 216.625 Z M 172.640625 216.625 " fill-opacity="1" fill-rule="nonzero"/><path fill="#e5ecf5" d="M 147.085938 216.625 C 143.683594 216.625 140.921875 219.386719 140.921875 222.789062 C 140.921875 226.195312 143.683594 228.953125 147.085938 228.953125 L 154.769531 228.953125 C 158.171875 228.953125 160.933594 226.195312 160.933594 222.789062 C 160.933594 219.386719 158.171875 216.625 154.769531 216.625 Z M 147.085938 216.625 " fill-opacity="1" fill-rule="nonzero"/><path fill="#32d736" d="M 227.089844 292.785156 L 257.882812 292.785156 L 257.882812 314.675781 L 227.089844 314.675781 Z M 227.089844 292.785156 " fill-opacity="1" fill-rule="evenodd"/><path fill="#e5ecf5" d="M 198.191406 286.628906 C 194.785156 286.628906 192.027344 289.390625 192.027344 292.792969 C 192.027344 296.199219 194.785156 298.957031 198.191406 298.957031 L 205.871094 298.957031 C 209.273438 298.957031 212.035156 296.199219 212.035156 292.792969 C 212.035156 289.390625 209.273438 286.628906 205.871094 286.628906 Z M 198.191406 286.628906 " fill-opacity="1" fill-rule="nonzero"/><path fill="#e5ecf5" d="M 172.640625 286.628906 C 169.234375 286.628906 166.476562 289.390625 166.476562 292.792969 C 166.476562 296.199219 169.234375 298.957031 172.640625 298.957031 L 180.320312 298.957031 C 183.722656 298.957031 186.484375 296.199219 186.484375 292.792969 C 186.484375 289.390625 183.722656 286.628906 180.320312 286.628906 Z M 172.640625 286.628906 " fill-opacity="1" fill-rule="nonzero"/><path fill="#e5ecf5" d="M 147.085938 286.628906 C 143.683594 286.628906 140.921875 289.390625 140.921875 292.792969 C 140.921875 296.199219 143.683594 298.957031 147.085938 298.957031 L 154.769531 298.957031 C 158.171875 298.957031 160.933594 296.199219 160.933594 292.792969 C 160.933594 289.390625 158.171875 286.628906 154.769531 286.628906 Z M 147.085938 286.628906 " fill-opacity="1" fill-rule="nonzero"/><path fill="#e5ecf5" d="M 198.191406 308.507812 C 194.785156 308.507812 192.027344 311.269531 192.027344 314.671875 C 192.027344 318.078125 194.785156 320.835938 198.191406 320.835938 L 205.871094 320.835938 C 209.273438 320.835938 212.035156 318.078125 212.035156 314.671875 C 212.035156 311.269531 209.273438 308.507812 205.871094 308.507812 Z M 198.191406 308.507812 " fill-opacity="1" fill-rule="nonzero"/><path fill="#e5ecf5" d="M 172.640625 308.507812 C 169.234375 308.507812 166.476562 311.269531 166.476562 314.671875 C 166.476562 318.078125 169.234375 320.835938 172.640625 320.835938 L 180.320312 320.835938 C 183.722656 320.835938 186.484375 318.078125 186.484375 314.671875 C 186.484375 311.269531 183.722656 308.507812 180.320312 308.507812 Z M 172.640625 308.507812 " fill-opacity="1" fill-rule="nonzero"/><path fill="#e5ecf5" d="M 147.085938 308.507812 C 143.683594 308.507812 140.921875 311.269531 140.921875 314.671875 C 140.921875 318.078125 143.683594 320.835938 147.085938 320.835938 L 154.769531 320.835938 C 158.171875 320.835938 160.933594 318.078125 160.933594 314.671875 C 160.933594 311.269531 158.171875 308.507812 154.769531 308.507812 Z M 147.085938 308.507812 " fill-opacity="1" fill-rule="nonzero"/><path fill="#956324" d="M 586.671875 248.253906 L 504.390625 400.203125 L 531.421875 415.808594 L 621.871094 268.574219 C 640.730469 237.871094 603.832031 216.566406 586.671875 248.253906 Z M 586.671875 248.253906 " fill-opacity="1" fill-rule="evenodd"/><path fill="#314782" d="M 113.742188 102.539062 L 137.78125 102.539062 C 140.902344 102.539062 143.433594 105.070312 143.433594 108.191406 C 143.433594 111.3125 140.902344 113.84375 137.78125 113.84375 L 113.742188 113.84375 L 116.765625 116.492188 C 119.105469 118.539062 119.34375 122.097656 117.292969 124.4375 C 115.246094 126.78125 111.6875 127.015625 109.347656 124.96875 L 95.394531 112.738281 C 95.074219 112.503906 94.773438 112.226562 94.5 111.917969 C 92.441406 109.570312 92.675781 106 95.023438 103.941406 L 95.039062 103.953125 L 109.347656 91.414062 C 111.6875 89.363281 115.246094 89.601562 117.292969 91.941406 C 119.34375 94.285156 119.105469 97.84375 116.765625 99.890625 Z M 73.097656 92.667969 L 73.097656 146.320312 L 223.480469 146.320312 L 223.480469 70.0625 L 95.707031 70.0625 C 83.273438 70.0625 73.097656 80.234375 73.097656 92.667969 Z M 179.289062 91.941406 C 181.335938 89.601562 184.894531 89.363281 187.234375 91.414062 L 201.1875 103.644531 C 201.316406 103.738281 201.4375 103.835938 201.558594 103.941406 C 201.640625 104.011719 201.71875 104.085938 201.792969 104.160156 C 202.226562 104.582031 202.574219 105.058594 202.839844 105.570312 C 202.859375 105.605469 202.878906 105.644531 202.898438 105.679688 C 203.273438 106.4375 203.484375 107.289062 203.484375 108.191406 C 203.484375 109.515625 203.023438 110.84375 202.082031 111.917969 C 201.894531 112.128906 201.695312 112.324219 201.484375 112.503906 C 201.390625 112.585938 201.289062 112.664062 201.1875 112.738281 L 187.234375 124.96875 C 184.894531 127.015625 181.335938 126.78125 179.289062 124.4375 C 177.238281 122.097656 177.476562 118.539062 179.816406 116.492188 L 182.839844 113.84375 L 158.800781 113.84375 C 155.679688 113.84375 153.148438 111.3125 153.148438 108.191406 C 153.148438 105.070312 155.679688 102.539062 158.800781 102.539062 L 182.839844 102.539062 L 179.816406 99.890625 C 177.476562 97.84375 177.238281 94.285156 179.289062 91.941406 Z M 179.289062 91.941406 " fill-opacity="1" fill-rule="evenodd"/><g clip-path="url(#af64825ebf)"><path fill="#000000" d="M 556.898438 519.535156 L 95.691406 519.535156 C 79.8125 519.535156 66.902344 506.628906 66.902344 490.746094 L 66.902344 92.660156 C 66.902344 76.777344 79.808594 63.871094 95.691406 63.871094 L 556.898438 63.871094 C 572.769531 63.871094 585.6875 76.777344 585.6875 92.660156 L 585.6875 261.523438 C 585.6875 264.9375 582.917969 267.707031 579.503906 267.707031 C 576.078125 267.707031 573.320312 264.9375 573.320312 261.523438 L 573.320312 92.664062 C 573.320312 83.605469 565.953125 76.238281 556.898438 76.238281 L 95.691406 76.238281 C 86.636719 76.238281 79.265625 83.605469 79.265625 92.664062 L 79.269531 490.746094 C 79.269531 499.800781 86.636719 507.171875 95.691406 507.171875 L 556.898438 507.167969 C 565.953125 507.167969 573.320312 499.800781 573.320312 490.746094 L 573.320312 337.5625 C 573.320312 334.148438 576.078125 331.378906 579.503906 331.378906 C 582.917969 331.378906 585.6875 334.148438 585.6875 337.5625 L 585.6875 490.746094 C 585.6875 506.628906 572.765625 519.539062 556.898438 519.535156 Z M 556.898438 519.535156 " fill-opacity="1" fill-rule="evenodd"/></g><g clip-path="url(#9a5795e136)"><path fill="#000000" d="M 579.507812 152.496094 L 73.085938 152.496094 C 69.671875 152.496094 66.902344 149.726562 66.902344 146.3125 C 66.902344 142.898438 69.671875 140.128906 73.085938 140.128906 L 579.507812 140.128906 C 582.917969 140.128906 585.6875 142.898438 585.6875 146.3125 C 585.6875 149.726562 582.917969 152.496094 579.507812 152.496094 Z M 579.507812 152.496094 " fill-opacity="1" fill-rule="evenodd"/></g><path fill="#000000" d="M 197.816406 114.367188 L 158.785156 114.367188 C 155.371094 114.367188 152.601562 111.597656 152.601562 108.183594 C 152.601562 104.769531 155.371094 102 158.785156 102 L 197.816406 102 C 201.242188 102 204 104.769531 204 108.183594 C 204 111.597656 201.242188 114.367188 197.816406 114.367188 Z M 197.816406 114.367188 " fill-opacity="1" fill-rule="evenodd"/><path fill="#000000" d="M 183.519531 126.898438 C 181.789062 126.898438 180.089844 126.191406 178.867188 124.800781 C 176.613281 122.222656 176.871094 118.320312 179.433594 116.066406 L 188.4375 108.183594 L 179.433594 100.289062 C 176.871094 98.046875 176.613281 94.128906 178.867188 91.566406 C 181.121094 89.003906 185.023438 88.746094 187.585938 90.988281 L 201.898438 103.535156 C 203.238281 104.707031 204 106.40625 204 108.183594 C 204 109.960938 203.238281 111.660156 201.898438 112.835938 L 187.585938 125.367188 C 186.417969 126.398438 184.957031 126.898438 183.519531 126.898438 Z M 183.519531 126.898438 " fill-opacity="1" fill-rule="evenodd"/><path fill="#000000" d="M 137.777344 114.367188 L 98.734375 114.367188 C 95.320312 114.367188 92.546875 111.597656 92.546875 108.183594 C 92.546875 104.769531 95.316406 102 98.730469 102 L 137.777344 102 C 141.1875 102 143.957031 104.769531 143.957031 108.183594 C 143.957031 111.597656 141.1875 114.367188 137.777344 114.367188 Z M 137.777344 114.367188 " fill-opacity="1" fill-rule="evenodd"/><path fill="#000000" d="M 113.042969 126.898438 C 111.585938 126.898438 110.144531 126.398438 108.957031 125.367188 L 94.660156 112.832031 C 93.324219 111.660156 92.546875 109.960938 92.546875 108.183594 C 92.546875 106.40625 93.320312 104.707031 94.660156 103.535156 L 108.957031 90.988281 C 111.535156 88.746094 115.4375 89.003906 117.691406 91.566406 C 119.949219 94.128906 119.6875 98.046875 117.113281 100.289062 L 108.109375 108.183594 L 117.113281 116.066406 C 119.691406 118.320312 119.945312 122.222656 117.691406 124.800781 C 116.472656 126.191406 114.753906 126.898438 113.042969 126.898438 Z M 113.042969 126.898438 " fill-opacity="1" fill-rule="evenodd"/><path fill="#000000" d="M 223.476562 152.496094 C 220.0625 152.496094 217.292969 149.726562 217.292969 146.3125 L 217.292969 70.054688 C 217.292969 66.640625 220.0625 63.871094 223.476562 63.871094 C 226.886719 63.871094 229.65625 66.640625 229.65625 70.054688 L 229.660156 146.3125 C 229.660156 149.726562 226.886719 152.496094 223.476562 152.496094 Z M 223.476562 152.496094 " fill-opacity="1" fill-rule="evenodd"/><path fill="#000000" d="M 387.03125 152.496094 C 383.605469 152.496094 380.847656 149.726562 380.847656 146.3125 L 380.847656 70.054688 C 380.847656 66.640625 383.605469 63.871094 387.03125 63.871094 C 390.445312 63.871094 393.214844 66.640625 393.214844 70.054688 L 393.214844 146.3125 C 393.214844 149.726562 390.445312 152.496094 387.03125 152.496094 Z M 387.03125 152.496094 " fill-opacity="1" fill-rule="evenodd"/><path fill="#000000" d="M 540.332031 95.648438 C 533.429688 95.648438 527.800781 101.265625 527.800781 108.183594 C 527.800781 115.101562 533.429688 120.71875 540.332031 120.71875 C 547.253906 120.714844 552.878906 115.101562 552.878906 108.183594 C 552.878906 101.265625 547.25 95.648438 540.335938 95.648438 Z M 540.332031 133.082031 C 526.601562 133.082031 515.433594 121.914062 515.433594 108.183594 C 515.433594 94.453125 526.601562 83.285156 540.332031 83.285156 C 554.066406 83.28125 565.246094 94.453125 565.246094 108.183594 C 565.246094 121.914062 554.0625 133.082031 540.335938 133.082031 Z M 540.332031 133.082031 " fill-opacity="1" fill-rule="evenodd"/><path fill="#000000" d="M 484.878906 95.648438 C 477.960938 95.648438 472.332031 101.265625 472.332031 108.183594 C 472.332031 115.101562 477.960938 120.71875 484.878906 120.71875 C 491.796875 120.714844 497.410156 115.101562 497.410156 108.183594 C 497.410156 101.265625 491.796875 95.648438 484.878906 95.648438 Z M 484.878906 133.082031 C 471.148438 133.082031 459.964844 121.914062 459.964844 108.183594 C 459.964844 94.453125 471.144531 83.285156 484.878906 83.285156 C 498.613281 83.28125 509.777344 94.453125 509.777344 108.183594 C 509.78125 121.914062 498.609375 133.082031 484.878906 133.082031 Z M 484.878906 133.082031 " fill-opacity="1" fill-rule="evenodd"/><path fill="#000000" d="M 429.414062 95.648438 C 422.507812 95.648438 416.875 101.265625 416.875 108.183594 C 416.875 115.101562 422.507812 120.71875 429.410156 120.71875 C 436.332031 120.714844 441.957031 115.101562 441.957031 108.183594 C 441.957031 101.265625 436.328125 95.648438 429.414062 95.648438 Z M 429.414062 133.082031 C 415.679688 133.082031 404.511719 121.914062 404.511719 108.183594 C 404.511719 94.453125 415.679688 83.285156 429.410156 83.285156 C 443.144531 83.28125 454.324219 94.453125 454.324219 108.183594 C 454.324219 121.914062 443.144531 133.082031 429.414062 133.082031 Z M 429.414062 133.082031 " fill-opacity="1" fill-rule="evenodd"/><path fill="#000000" d="M 512.703125 397.859375 L 529.308594 407.453125 L 616.617188 265.335938 C 621.28125 257.734375 622.207031 250.289062 619.167969 244.894531 C 616.992188 241.054688 613.074219 238.773438 608.65625 238.773438 C 608.617188 238.773438 608.589844 238.773438 608.539062 238.773438 C 602.355469 238.824219 596.367188 243.359375 592.117188 251.191406 Z M 531.417969 422 C 530.375 422 529.304688 421.726562 528.339844 421.175781 L 501.300781 405.5625 C 498.402344 403.886719 497.359375 400.203125 498.957031 397.265625 L 581.246094 245.304688 C 587.699219 233.390625 597.601562 226.5 608.4375 226.410156 C 608.503906 226.40625 608.578125 226.410156 608.65625 226.410156 C 617.453125 226.40625 625.59375 231.136719 629.921875 238.8125 C 635.257812 248.242188 634.238281 260.261719 627.152344 271.816406 L 536.703125 419.046875 C 535.527344 420.941406 533.503906 422 531.417969 421.996094 Z M 531.417969 422 " fill-opacity="1" fill-rule="evenodd"/><path fill="#000000" d="M 479.765625 464.597656 C 476.121094 464.597656 473.734375 464.339844 473.398438 464.300781 C 470.621094 463.980469 468.390625 461.828125 467.992188 459.058594 C 467.578125 456.273438 469.085938 453.582031 471.660156 452.476562 C 472.203125 452.230469 485.84375 445.878906 485.871094 427.355469 C 485.898438 412.066406 493.675781 401.683594 500.207031 395.65625 C 502.71875 393.351562 506.621094 393.503906 508.941406 396.015625 C 511.261719 398.527344 511.105469 402.433594 508.59375 404.75 C 503.878906 409.105469 498.25 416.550781 498.234375 427.371094 C 498.222656 437.816406 495.066406 445.597656 491.175781 451.226562 C 498.613281 449.925781 507.109375 446.976562 513.308594 440.585938 C 519.851562 433.835938 524.21875 424.550781 525.285156 415.121094 C 525.671875 411.730469 528.710938 409.285156 532.128906 409.671875 C 535.515625 410.058594 537.960938 413.109375 537.574219 416.511719 C 536.765625 423.621094 533.699219 437.3125 522.183594 449.191406 C 509.109375 462.675781 489.71875 464.597656 479.765625 464.597656 Z M 479.765625 464.597656 " fill-opacity="1" fill-rule="evenodd"/><path fill="#000000" d="M 129.609375 238.039062 L 318.375 238.039062 L 318.375 185.703125 L 129.609375 185.703125 Z M 324.558594 250.40625 L 123.429688 250.40625 C 120.015625 250.40625 117.242188 247.636719 117.242188 244.222656 L 117.242188 179.519531 C 117.242188 176.105469 120.011719 173.351562 123.425781 173.351562 L 324.558594 173.351562 C 327.972656 173.351562 330.738281 176.105469 330.738281 179.519531 L 330.738281 244.222656 C 330.738281 247.636719 327.96875 250.40625 324.558594 250.40625 Z M 324.558594 250.40625 " fill-opacity="1" fill-rule="evenodd"/><path fill="#000000" d="M 131.863281 277.535156 C 128.449219 277.535156 125.679688 274.765625 125.679688 271.351562 L 125.679688 244.222656 C 125.679688 240.808594 128.449219 238.042969 131.863281 238.042969 C 135.277344 238.042969 138.046875 240.8125 138.046875 244.222656 L 138.046875 271.351562 C 138.046875 274.765625 135.277344 277.535156 131.863281 277.535156 Z M 316.121094 277.535156 C 312.707031 277.535156 309.933594 274.765625 309.933594 271.351562 L 309.9375 244.222656 C 309.9375 240.808594 312.703125 238.042969 316.117188 238.042969 C 319.535156 238.042969 322.300781 240.8125 322.300781 244.222656 L 322.300781 271.351562 C 322.300781 274.765625 319.53125 277.535156 316.121094 277.535156 Z M 316.121094 277.535156 " fill-opacity="1" fill-rule="evenodd"/><path fill="#000000" d="M 129.609375 329.871094 L 318.375 329.871094 L 318.375 277.535156 L 129.609375 277.535156 Z M 324.558594 342.238281 L 123.429688 342.238281 C 120.015625 342.238281 117.242188 339.46875 117.242188 336.054688 L 117.242188 271.351562 C 117.242188 267.9375 120.011719 265.167969 123.425781 265.167969 L 324.558594 265.167969 C 327.972656 265.167969 330.738281 267.9375 330.738281 271.351562 L 330.738281 336.054688 C 330.738281 339.46875 327.96875 342.238281 324.558594 342.238281 Z M 324.558594 342.238281 " fill-opacity="1" fill-rule="evenodd"/><path fill="#000000" d="M 233.265625 308.449219 L 251.648438 308.449219 L 251.648438 298.957031 L 233.265625 298.957031 Z M 257.832031 320.816406 L 227.082031 320.816406 C 223.667969 320.816406 220.898438 318.046875 220.898438 314.632812 L 220.902344 292.773438 C 220.902344 289.359375 223.667969 286.589844 227.082031 286.589844 L 257.832031 286.589844 C 261.246094 286.589844 264.011719 289.359375 264.011719 292.773438 L 264.011719 314.632812 C 264.011719 318.046875 261.242188 320.816406 257.832031 320.816406 Z M 257.832031 320.816406 " fill-opacity="1" fill-rule="evenodd"/><path fill="#000000" d="M 289.945312 298.980469 C 287.339844 298.980469 285.214844 301.09375 285.214844 303.710938 C 285.21875 306.3125 287.339844 308.425781 289.941406 308.425781 C 292.558594 308.421875 294.671875 306.3125 294.671875 303.710938 C 294.671875 301.09375 292.558594 298.980469 289.945312 298.980469 Z M 289.945312 320.789062 C 280.527344 320.789062 272.863281 313.125 272.863281 303.710938 C 272.863281 294.277344 280.527344 286.617188 289.941406 286.617188 C 299.371094 286.613281 307.035156 294.28125 307.035156 303.710938 C 307.039062 313.125 299.371094 320.789062 289.945312 320.789062 Z M 289.945312 320.789062 " fill-opacity="1" fill-rule="evenodd"/><path fill="#000000" d="M 205.867188 298.957031 L 198.203125 298.957031 C 194.773438 298.957031 192.019531 296.1875 192.019531 292.773438 C 192.019531 289.359375 194.773438 286.589844 198.203125 286.589844 L 205.867188 286.589844 C 209.28125 286.589844 212.050781 289.359375 212.050781 292.773438 C 212.050781 296.1875 209.28125 298.957031 205.867188 298.957031 Z M 205.867188 298.957031 " fill-opacity="1" fill-rule="evenodd"/><path fill="#000000" d="M 180.335938 298.957031 L 172.65625 298.957031 C 169.242188 298.957031 166.472656 296.1875 166.472656 292.773438 C 166.476562 289.359375 169.242188 286.589844 172.65625 286.589844 L 180.335938 286.589844 C 183.75 286.589844 186.519531 289.359375 186.519531 292.773438 C 186.519531 296.1875 183.75 298.957031 180.335938 298.957031 Z M 180.335938 298.957031 " fill-opacity="1" fill-rule="evenodd"/><path fill="#000000" d="M 154.804688 298.957031 L 147.125 298.957031 C 143.714844 298.957031 140.945312 296.1875 140.945312 292.773438 C 140.945312 289.359375 143.714844 286.589844 147.125 286.589844 L 154.804688 286.589844 C 158.21875 286.589844 160.988281 289.359375 160.988281 292.773438 C 160.988281 296.1875 158.21875 298.957031 154.804688 298.957031 Z M 154.804688 298.957031 " fill-opacity="1" fill-rule="evenodd"/><path fill="#000000" d="M 205.867188 320.816406 L 198.203125 320.816406 C 194.773438 320.816406 192.019531 318.046875 192.019531 314.632812 C 192.019531 311.21875 194.773438 308.449219 198.203125 308.449219 L 205.867188 308.449219 C 209.28125 308.449219 212.050781 311.21875 212.050781 314.632812 C 212.050781 318.046875 209.28125 320.816406 205.867188 320.816406 Z M 205.867188 320.816406 " fill-opacity="1" fill-rule="evenodd"/><path fill="#000000" d="M 180.335938 320.816406 L 172.65625 320.816406 C 169.242188 320.816406 166.472656 318.046875 166.472656 314.632812 C 166.476562 311.21875 169.242188 308.449219 172.65625 308.449219 L 180.335938 308.449219 C 183.75 308.449219 186.519531 311.21875 186.519531 314.632812 C 186.519531 318.046875 183.75 320.816406 180.335938 320.816406 Z M 180.335938 320.816406 " fill-opacity="1" fill-rule="evenodd"/><path fill="#000000" d="M 154.804688 320.816406 L 147.125 320.816406 C 143.714844 320.816406 140.945312 318.046875 140.945312 314.632812 C 140.945312 311.21875 143.714844 308.449219 147.125 308.449219 L 154.804688 308.449219 C 158.21875 308.449219 160.988281 311.21875 160.988281 314.632812 C 160.988281 318.046875 158.21875 320.816406 154.804688 320.816406 Z M 154.804688 320.816406 " fill-opacity="1" fill-rule="evenodd"/><path fill="#000000" d="M 233.265625 216.632812 L 251.648438 216.632812 L 251.648438 207.125 L 233.265625 207.125 Z M 257.832031 228.996094 L 227.082031 228.996094 C 223.667969 228.996094 220.898438 226.226562 220.898438 222.816406 L 220.902344 200.941406 C 220.902344 197.527344 223.667969 194.757812 227.082031 194.757812 L 257.832031 194.757812 C 261.246094 194.757812 264.011719 197.527344 264.011719 200.941406 L 264.011719 222.816406 C 264.011719 226.226562 261.242188 228.996094 257.832031 228.996094 Z M 257.832031 228.996094 " fill-opacity="1" fill-rule="evenodd"/><path fill="#000000" d="M 289.945312 207.152344 C 287.339844 207.152344 285.214844 209.277344 285.214844 211.878906 C 285.21875 214.480469 287.339844 216.605469 289.941406 216.605469 C 292.558594 216.605469 294.671875 214.480469 294.671875 211.878906 C 294.671875 209.277344 292.558594 207.152344 289.945312 207.152344 Z M 289.945312 228.972656 C 280.527344 228.972656 272.863281 221.292969 272.863281 211.878906 C 272.863281 202.449219 280.527344 194.785156 289.941406 194.785156 C 299.371094 194.785156 307.035156 202.449219 307.035156 211.878906 C 307.039062 221.292969 299.371094 228.972656 289.945312 228.972656 Z M 289.945312 228.972656 " fill-opacity="1" fill-rule="evenodd"/><path fill="#000000" d="M 205.867188 207.125 L 198.203125 207.125 C 194.773438 207.125 192.019531 204.355469 192.019531 200.941406 C 192.019531 197.527344 194.773438 194.757812 198.203125 194.757812 L 205.867188 194.757812 C 209.28125 194.757812 212.050781 197.527344 212.050781 200.941406 C 212.050781 204.355469 209.28125 207.125 205.867188 207.125 Z M 205.867188 207.125 " fill-opacity="1" fill-rule="evenodd"/><path fill="#000000" d="M 180.335938 207.125 L 172.65625 207.125 C 169.242188 207.125 166.472656 204.355469 166.472656 200.941406 C 166.476562 197.527344 169.242188 194.757812 172.65625 194.757812 L 180.335938 194.757812 C 183.75 194.757812 186.519531 197.527344 186.519531 200.941406 C 186.519531 204.355469 183.75 207.125 180.335938 207.125 Z M 180.335938 207.125 " fill-opacity="1" fill-rule="evenodd"/><path fill="#000000" d="M 154.804688 207.125 L 147.125 207.125 C 143.714844 207.125 140.945312 204.355469 140.945312 200.941406 C 140.945312 197.527344 143.714844 194.757812 147.125 194.757812 L 154.804688 194.757812 C 158.21875 194.757812 160.988281 197.527344 160.988281 200.941406 C 160.988281 204.355469 158.21875 207.125 154.804688 207.125 Z M 154.804688 207.125 " fill-opacity="1" fill-rule="evenodd"/><path fill="#000000" d="M 205.867188 228.996094 L 198.203125 228.996094 C 194.773438 228.996094 192.019531 226.230469 192.019531 222.816406 C 192.019531 219.386719 194.773438 216.632812 198.203125 216.632812 L 205.867188 216.632812 C 209.28125 216.632812 212.050781 219.390625 212.050781 222.816406 C 212.050781 226.226562 209.28125 229 205.867188 228.996094 Z M 205.867188 228.996094 " fill-opacity="1" fill-rule="evenodd"/><path fill="#000000" d="M 180.335938 228.996094 L 172.65625 228.996094 C 169.242188 228.996094 166.472656 226.230469 166.472656 222.816406 C 166.476562 219.386719 169.242188 216.632812 172.65625 216.632812 L 180.335938 216.632812 C 183.75 216.632812 186.519531 219.390625 186.519531 222.816406 C 186.519531 226.226562 183.75 229 180.335938 228.996094 Z M 180.335938 228.996094 " fill-opacity="1" fill-rule="evenodd"/><path fill="#000000" d="M 154.804688 228.996094 L 147.125 228.996094 C 143.714844 228.996094 140.945312 226.230469 140.945312 222.816406 C 140.945312 219.386719 143.714844 216.632812 147.125 216.632812 L 154.804688 216.632812 C 158.21875 216.632812 160.988281 219.390625 160.988281 222.816406 C 160.988281 226.226562 158.21875 229 154.804688 228.996094 Z M 154.804688 228.996094 " fill-opacity="1" fill-rule="evenodd"/><path fill="#000000" d="M 453.847656 396.105469 L 312.535156 396.105469 C 309.125 396.105469 306.355469 393.351562 306.355469 389.925781 C 306.355469 386.511719 309.125 383.742188 312.535156 383.742188 L 453.847656 383.742188 C 457.261719 383.742188 460.03125 386.511719 460.03125 389.925781 C 460.03125 393.351562 457.261719 396.105469 453.847656 396.105469 Z M 453.847656 396.105469 " fill-opacity="1" fill-rule="evenodd"/><path fill="#000000" d="M 453.847656 430.023438 L 312.535156 430.023438 C 309.125 430.023438 306.355469 427.253906 306.355469 423.839844 C 306.355469 420.425781 309.125 417.65625 312.535156 417.65625 L 453.847656 417.65625 C 457.261719 417.65625 460.03125 420.425781 460.03125 423.839844 C 460.03125 427.253906 457.261719 430.023438 453.847656 430.023438 Z M 453.847656 430.023438 " fill-opacity="1" fill-rule="evenodd"/><path fill="#000000" d="M 453.847656 463.941406 L 312.535156 463.941406 C 309.125 463.941406 306.355469 461.171875 306.355469 457.757812 C 306.355469 454.34375 309.125 451.574219 312.535156 451.574219 L 453.847656 451.574219 C 457.261719 451.574219 460.03125 454.34375 460.03125 457.757812 C 460.03125 461.171875 457.261719 463.941406 453.847656 463.941406 Z M 453.847656 463.941406 " fill-opacity="1" fill-rule="evenodd"/><path fill="#000000" d="M 129.609375 473.960938 L 269.695312 473.960938 L 269.695312 373.71875 L 129.609375 373.71875 Z M 275.878906 486.328125 L 123.425781 486.328125 C 120.011719 486.328125 117.242188 483.558594 117.242188 480.144531 L 117.242188 367.535156 C 117.242188 364.121094 120.011719 361.351562 123.425781 361.351562 L 275.878906 361.351562 C 279.304688 361.351562 282.058594 364.125 282.058594 367.535156 L 282.0625 480.144531 C 282.0625 483.558594 279.304688 486.328125 275.878906 486.328125 Z M 275.878906 486.328125 " fill-opacity="1" fill-rule="evenodd"/><path fill="#000000" d="M 529.167969 247.019531 L 376.558594 247.019531 C 373.148438 247.019531 370.375 244.25 370.375 240.835938 C 370.375 237.421875 373.144531 234.652344 376.558594 234.652344 L 529.167969 234.652344 C 532.578125 234.652344 535.347656 237.421875 535.347656 240.835938 C 535.347656 244.25 532.578125 247.019531 529.167969 247.019531 Z M 529.167969 247.019531 " fill-opacity="1" fill-rule="evenodd"/><path fill="#000000" d="M 529.167969 280.933594 L 376.558594 280.933594 C 373.148438 280.933594 370.375 278.167969 370.375 274.738281 C 370.375 271.324219 373.144531 268.558594 376.558594 268.558594 L 529.167969 268.554688 C 532.578125 268.554688 535.347656 271.324219 535.347656 274.738281 C 535.347656 278.164062 532.578125 280.9375 529.167969 280.933594 Z M 529.167969 280.933594 " fill-opacity="1" fill-rule="evenodd"/><path fill="#000000" d="M 529.167969 314.839844 L 376.558594 314.839844 C 373.148438 314.839844 370.375 312.070312 370.375 308.65625 C 370.375 305.242188 373.144531 302.472656 376.558594 302.472656 L 529.167969 302.472656 C 532.578125 302.472656 535.347656 305.242188 535.347656 308.65625 C 535.347656 312.070312 532.578125 314.839844 529.167969 314.839844 Z M 529.167969 314.839844 " fill-opacity="1" fill-rule="evenodd"/><path fill="#000000" d="M 529.167969 213.101562 L 376.558594 213.101562 C 373.148438 213.101562 370.375 210.332031 370.375 206.917969 C 370.375 203.503906 373.144531 200.734375 376.558594 200.734375 L 529.167969 200.734375 C 532.578125 200.734375 535.347656 203.503906 535.347656 206.917969 C 535.347656 210.332031 532.578125 213.101562 529.167969 213.101562 Z M 529.167969 213.101562 " fill-opacity="1" fill-rule="evenodd"/></svg>