<svg xmlns="http://www.w3.org/2000/svg" xmlns:xlink="http://www.w3.org/1999/xlink" width="940" zoomAndPan="magnify" viewBox="0 0 705 591.000005" height="788" preserveAspectRatio="xMidYMid meet" version="1.0"><defs><clipPath id="4348a172a1"><path d="M 232.925781 42 L 471.769531 42 L 471.769531 548 L 232.925781 548 Z M 232.925781 42 " clip-rule="nonzero"/></clipPath></defs><g clip-path="url(#4348a172a1)"><path fill="#622da6" d="M 416.894531 125.882812 L 472.0625 125.882812 L 472.0625 42.703125 L 401.617188 42.703125 L 401.617188 43.023438 C 308.996094 46.417969 289.898438 98.296875 288.308594 153.148438 L 288.09375 153.148438 L 288.09375 210.867188 L 232.925781 210.867188 L 232.925781 294.148438 L 288.09375 294.148438 L 288.09375 547.292969 L 387.082031 547.292969 L 387.082031 294.148438 L 458.058594 294.148438 L 472.0625 210.867188 L 387.082031 210.867188 L 387.082031 159.195312 C 387.082031 140.84375 399.386719 125.882812 416.894531 125.882812 Z M 416.894531 125.882812 " fill-opacity="1" fill-rule="nonzero"/></g></svg>