<svg xmlns="http://www.w3.org/2000/svg" xmlns:xlink="http://www.w3.org/1999/xlink" width="940" zoomAndPan="magnify" viewBox="0 0 705 591.000005" height="788" preserveAspectRatio="xMidYMid meet" version="1.0"><defs><clipPath id="e4c73e0a0b"><path d="M 142.820312 67.535156 L 562.109375 67.535156 L 562.109375 522.765625 L 142.820312 522.765625 Z M 142.820312 67.535156 " clip-rule="nonzero"/></clipPath></defs><path fill="#ffffff" d="M 553.132812 353.171875 L 553.132812 388.875 C 553.132812 403.664062 541.15625 415.652344 526.378906 415.652344 C 516.5625 415.652344 188.355469 415.652344 178.550781 415.652344 C 163.773438 415.652344 151.796875 403.664062 151.796875 388.875 L 151.796875 353.171875 C 151.796875 338.378906 163.773438 326.390625 178.550781 326.390625 C 218.15625 326.390625 486.726562 326.390625 526.378906 326.390625 C 541.15625 326.390625 553.132812 338.378906 553.132812 353.171875 Z M 553.132812 353.171875 " fill-opacity="1" fill-rule="nonzero"/><path fill="#89ccff" d="M 553.132812 228.207031 L 553.132812 263.910156 C 553.132812 278.699219 541.15625 290.6875 526.378906 290.6875 C 486.773438 290.6875 218.203125 290.6875 178.550781 290.6875 C 163.773438 290.6875 151.796875 278.699219 151.796875 263.910156 L 151.796875 228.207031 C 151.796875 213.414062 163.773438 201.425781 178.550781 201.425781 C 218.15625 201.425781 486.726562 201.425781 526.378906 201.425781 C 541.15625 201.425781 553.132812 213.414062 553.132812 228.207031 Z M 553.132812 228.207031 " fill-opacity="1" fill-rule="nonzero"/><path fill="#ffffff" d="M 553.132812 103.242188 L 553.132812 138.945312 C 553.132812 153.734375 541.15625 165.722656 526.378906 165.722656 C 486.761719 165.722656 218.164062 165.722656 178.550781 165.722656 C 163.773438 165.722656 151.796875 153.734375 151.796875 138.945312 L 151.796875 103.242188 C 151.796875 88.449219 163.773438 76.460938 178.550781 76.460938 L 526.378906 76.460938 C 541.15625 76.460938 553.132812 88.449219 553.132812 103.242188 Z M 553.132812 103.242188 " fill-opacity="1" fill-rule="nonzero"/><path fill="#ffffff" d="M 553.132812 495.988281 C 553.132812 496.574219 553.105469 497.15625 553.046875 497.738281 C 552.988281 498.320312 552.90625 498.898438 552.789062 499.46875 C 552.675781 500.042969 552.535156 500.609375 552.363281 501.171875 C 552.195312 501.730469 552 502.28125 551.773438 502.820312 C 551.550781 503.359375 551.300781 503.886719 551.027344 504.402344 C 550.75 504.917969 550.453125 505.417969 550.128906 505.90625 C 549.800781 506.390625 549.453125 506.859375 549.085938 507.3125 C 548.714844 507.765625 548.320312 508.199219 547.910156 508.609375 C 547.496094 509.023438 547.0625 509.417969 546.613281 509.789062 C 546.160156 510.160156 545.691406 510.507812 545.207031 510.832031 C 544.71875 511.15625 544.21875 511.457031 543.703125 511.730469 C 543.1875 512.007812 542.660156 512.257812 542.121094 512.480469 C 541.582031 512.703125 541.03125 512.902344 540.472656 513.070312 C 539.914062 513.242188 539.347656 513.382812 538.777344 513.496094 C 538.203125 513.609375 537.625 513.695312 537.042969 513.753906 C 536.464844 513.8125 535.878906 513.839844 535.296875 513.839844 C 534.710938 513.839844 534.128906 513.8125 533.546875 513.753906 C 532.964844 513.695312 532.390625 513.609375 531.816406 513.496094 C 531.242188 513.382812 530.675781 513.242188 530.117188 513.070312 C 529.558594 512.902344 529.007812 512.703125 528.46875 512.480469 C 527.929688 512.257812 527.402344 512.007812 526.886719 511.730469 C 526.371094 511.457031 525.871094 511.15625 525.386719 510.832031 C 524.898438 510.507812 524.433594 510.160156 523.980469 509.789062 C 523.527344 509.417969 523.097656 509.023438 522.683594 508.609375 C 522.269531 508.199219 521.878906 507.765625 521.507812 507.3125 C 521.136719 506.859375 520.789062 506.390625 520.464844 505.90625 C 520.140625 505.417969 519.839844 504.917969 519.566406 504.402344 C 519.289062 503.886719 519.039062 503.359375 518.816406 502.820312 C 518.59375 502.28125 518.394531 501.730469 518.226562 501.171875 C 518.058594 500.609375 517.914062 500.042969 517.800781 499.46875 C 517.6875 498.898438 517.601562 498.320312 517.542969 497.738281 C 517.488281 497.15625 517.457031 496.574219 517.457031 495.988281 C 517.457031 495.402344 517.488281 494.820312 517.542969 494.238281 C 517.601562 493.65625 517.6875 493.078125 517.800781 492.503906 C 517.914062 491.929688 518.058594 491.363281 518.226562 490.804688 C 518.394531 490.246094 518.59375 489.695312 518.816406 489.15625 C 519.039062 488.617188 519.289062 488.089844 519.566406 487.574219 C 519.839844 487.058594 520.140625 486.554688 520.464844 486.070312 C 520.789062 485.582031 521.136719 485.113281 521.507812 484.664062 C 521.878906 484.210938 522.269531 483.777344 522.683594 483.363281 C 523.097656 482.949219 523.527344 482.558594 523.980469 482.1875 C 524.433594 481.816406 524.898438 481.46875 525.386719 481.144531 C 525.871094 480.820312 526.371094 480.519531 526.886719 480.242188 C 527.402344 479.96875 527.929688 479.71875 528.46875 479.496094 C 529.007812 479.269531 529.558594 479.074219 530.117188 478.90625 C 530.675781 478.734375 531.242188 478.59375 531.816406 478.480469 C 532.390625 478.363281 532.964844 478.277344 533.546875 478.222656 C 534.128906 478.164062 534.710938 478.136719 535.296875 478.136719 C 535.878906 478.136719 536.464844 478.164062 537.042969 478.222656 C 537.625 478.277344 538.203125 478.363281 538.777344 478.480469 C 539.347656 478.59375 539.914062 478.734375 540.472656 478.90625 C 541.03125 479.074219 541.582031 479.269531 542.121094 479.496094 C 542.660156 479.71875 543.1875 479.96875 543.703125 480.242188 C 544.21875 480.519531 544.71875 480.820312 545.207031 481.144531 C 545.691406 481.46875 546.160156 481.816406 546.613281 482.1875 C 547.0625 482.558594 547.496094 482.949219 547.910156 483.363281 C 548.320312 483.777344 548.714844 484.210938 549.085938 484.664062 C 549.453125 485.113281 549.800781 485.582031 550.128906 486.070312 C 550.453125 486.554688 550.75 487.058594 551.027344 487.574219 C 551.300781 488.089844 551.550781 488.617188 551.773438 489.15625 C 552 489.695312 552.195312 490.246094 552.363281 490.804688 C 552.535156 491.363281 552.675781 491.929688 552.789062 492.503906 C 552.90625 493.078125 552.988281 493.65625 553.046875 494.238281 C 553.105469 494.820312 553.132812 495.402344 553.132812 495.988281 Z M 553.132812 495.988281 " fill-opacity="1" fill-rule="nonzero"/><path fill="#ffffff" d="M 370.300781 495.988281 C 370.300781 496.574219 370.273438 497.15625 370.214844 497.738281 C 370.160156 498.320312 370.074219 498.898438 369.957031 499.46875 C 369.84375 500.042969 369.703125 500.609375 369.535156 501.171875 C 369.363281 501.730469 369.167969 502.28125 368.945312 502.820312 C 368.71875 503.359375 368.46875 503.886719 368.195312 504.402344 C 367.921875 504.917969 367.621094 505.417969 367.296875 505.90625 C 366.972656 506.390625 366.625 506.859375 366.253906 507.3125 C 365.882812 507.765625 365.492188 508.199219 365.078125 508.609375 C 364.664062 509.023438 364.230469 509.417969 363.78125 509.789062 C 363.328125 510.160156 362.859375 510.507812 362.375 510.832031 C 361.886719 511.15625 361.386719 511.457031 360.871094 511.730469 C 360.359375 512.007812 359.828125 512.257812 359.289062 512.480469 C 358.75 512.703125 358.203125 512.902344 357.640625 513.070312 C 357.082031 513.242188 356.515625 513.382812 355.945312 513.496094 C 355.371094 513.609375 354.792969 513.695312 354.210938 513.753906 C 353.632812 513.8125 353.046875 513.839844 352.464844 513.839844 C 351.878906 513.839844 351.296875 513.8125 350.714844 513.753906 C 350.132812 513.695312 349.558594 513.609375 348.984375 513.496094 C 348.410156 513.382812 347.84375 513.242188 347.285156 513.070312 C 346.726562 512.902344 346.179688 512.703125 345.636719 512.480469 C 345.097656 512.257812 344.570312 512.007812 344.054688 511.730469 C 343.539062 511.457031 343.039062 511.15625 342.554688 510.832031 C 342.070312 510.507812 341.601562 510.160156 341.148438 509.789062 C 340.695312 509.417969 340.265625 509.023438 339.851562 508.609375 C 339.4375 508.199219 339.046875 507.765625 338.675781 507.3125 C 338.304688 506.859375 337.957031 506.390625 337.632812 505.90625 C 337.308594 505.417969 337.007812 504.917969 336.734375 504.402344 C 336.457031 503.886719 336.207031 503.359375 335.984375 502.820312 C 335.761719 502.28125 335.566406 501.730469 335.394531 501.171875 C 335.226562 500.609375 335.082031 500.042969 334.96875 499.46875 C 334.855469 498.898438 334.769531 498.320312 334.714844 497.738281 C 334.65625 497.15625 334.628906 496.574219 334.628906 495.988281 C 334.628906 495.402344 334.65625 494.820312 334.714844 494.238281 C 334.769531 493.65625 334.855469 493.078125 334.96875 492.503906 C 335.082031 491.929688 335.226562 491.363281 335.394531 490.804688 C 335.566406 490.246094 335.761719 489.695312 335.984375 489.15625 C 336.207031 488.617188 336.457031 488.089844 336.734375 487.574219 C 337.007812 487.058594 337.308594 486.554688 337.632812 486.070312 C 337.957031 485.582031 338.304688 485.113281 338.675781 484.664062 C 339.046875 484.210938 339.4375 483.777344 339.851562 483.363281 C 340.265625 482.949219 340.695312 482.558594 341.148438 482.1875 C 341.601562 481.816406 342.070312 481.46875 342.554688 481.144531 C 343.039062 480.820312 343.539062 480.519531 344.054688 480.242188 C 344.570312 479.96875 345.097656 479.71875 345.636719 479.496094 C 346.179688 479.269531 346.726562 479.074219 347.285156 478.90625 C 347.84375 478.734375 348.410156 478.59375 348.984375 478.480469 C 349.558594 478.363281 350.132812 478.277344 350.714844 478.222656 C 351.296875 478.164062 351.878906 478.136719 352.464844 478.136719 C 353.046875 478.136719 353.632812 478.164062 354.210938 478.222656 C 354.792969 478.277344 355.371094 478.363281 355.945312 478.480469 C 356.515625 478.59375 357.082031 478.734375 357.640625 478.90625 C 358.203125 479.074219 358.75 479.269531 359.289062 479.496094 C 359.828125 479.71875 360.359375 479.96875 360.871094 480.242188 C 361.386719 480.519531 361.886719 480.820312 362.375 481.144531 C 362.859375 481.46875 363.328125 481.816406 363.78125 482.1875 C 364.230469 482.558594 364.664062 482.949219 365.078125 483.363281 C 365.492188 483.777344 365.882812 484.210938 366.253906 484.664062 C 366.625 485.113281 366.972656 485.582031 367.296875 486.070312 C 367.621094 486.554688 367.921875 487.058594 368.195312 487.574219 C 368.46875 488.089844 368.71875 488.617188 368.945312 489.15625 C 369.167969 489.695312 369.363281 490.246094 369.535156 490.804688 C 369.703125 491.363281 369.84375 491.929688 369.957031 492.503906 C 370.074219 493.078125 370.160156 493.65625 370.214844 494.238281 C 370.273438 494.820312 370.300781 495.402344 370.300781 495.988281 Z M 370.300781 495.988281 " fill-opacity="1" fill-rule="nonzero"/><path fill="#ffffff" d="M 187.46875 495.988281 C 187.46875 496.574219 187.441406 497.15625 187.382812 497.738281 C 187.328125 498.320312 187.242188 498.898438 187.128906 499.46875 C 187.011719 500.042969 186.871094 500.609375 186.703125 501.171875 C 186.53125 501.730469 186.335938 502.28125 186.113281 502.820312 C 185.886719 503.359375 185.640625 503.886719 185.363281 504.402344 C 185.089844 504.917969 184.789062 505.417969 184.464844 505.90625 C 184.140625 506.390625 183.792969 506.859375 183.421875 507.3125 C 183.050781 507.765625 182.660156 508.199219 182.246094 508.609375 C 181.832031 509.023438 181.398438 509.417969 180.949219 509.789062 C 180.496094 510.160156 180.027344 510.507812 179.542969 510.832031 C 179.058594 511.15625 178.554688 511.457031 178.042969 511.730469 C 177.527344 512.007812 177 512.257812 176.457031 512.480469 C 175.917969 512.703125 175.371094 512.902344 174.8125 513.070312 C 174.25 513.242188 173.6875 513.382812 173.113281 513.496094 C 172.539062 513.609375 171.960938 513.695312 171.382812 513.753906 C 170.800781 513.8125 170.21875 513.839844 169.632812 513.839844 C 169.046875 513.839844 168.464844 513.8125 167.882812 513.753906 C 167.304688 513.695312 166.726562 513.609375 166.152344 513.496094 C 165.578125 513.382812 165.015625 513.242188 164.453125 513.070312 C 163.894531 512.902344 163.347656 512.703125 162.808594 512.480469 C 162.265625 512.257812 161.738281 512.007812 161.222656 511.730469 C 160.710938 511.457031 160.207031 511.15625 159.722656 510.832031 C 159.238281 510.507812 158.769531 510.160156 158.316406 509.789062 C 157.867188 509.417969 157.433594 509.023438 157.019531 508.609375 C 156.605469 508.199219 156.214844 507.765625 155.84375 507.3125 C 155.472656 506.859375 155.125 506.390625 154.800781 505.90625 C 154.476562 505.417969 154.175781 504.917969 153.902344 504.402344 C 153.625 503.886719 153.375 503.359375 153.152344 502.820312 C 152.929688 502.28125 152.734375 501.730469 152.5625 501.171875 C 152.394531 500.609375 152.253906 500.042969 152.136719 499.46875 C 152.023438 498.898438 151.9375 498.320312 151.882812 497.738281 C 151.824219 497.15625 151.796875 496.574219 151.796875 495.988281 C 151.796875 495.402344 151.824219 494.820312 151.882812 494.238281 C 151.9375 493.65625 152.023438 493.078125 152.136719 492.503906 C 152.253906 491.929688 152.394531 491.363281 152.5625 490.804688 C 152.734375 490.246094 152.929688 489.695312 153.152344 489.15625 C 153.375 488.617188 153.625 488.089844 153.902344 487.574219 C 154.175781 487.058594 154.476562 486.554688 154.800781 486.070312 C 155.125 485.582031 155.472656 485.113281 155.84375 484.664062 C 156.214844 484.210938 156.605469 483.777344 157.019531 483.363281 C 157.433594 482.949219 157.867188 482.558594 158.316406 482.1875 C 158.769531 481.816406 159.238281 481.46875 159.722656 481.144531 C 160.207031 480.820312 160.710938 480.519531 161.222656 480.242188 C 161.738281 479.96875 162.265625 479.71875 162.808594 479.496094 C 163.347656 479.269531 163.894531 479.074219 164.453125 478.90625 C 165.015625 478.734375 165.578125 478.59375 166.152344 478.480469 C 166.726562 478.363281 167.304688 478.277344 167.882812 478.222656 C 168.464844 478.164062 169.046875 478.136719 169.632812 478.136719 C 170.21875 478.136719 170.800781 478.164062 171.382812 478.222656 C 171.960938 478.277344 172.539062 478.363281 173.113281 478.480469 C 173.6875 478.59375 174.25 478.734375 174.8125 478.90625 C 175.371094 479.074219 175.917969 479.269531 176.457031 479.496094 C 177 479.71875 177.527344 479.96875 178.042969 480.242188 C 178.554688 480.519531 179.058594 480.820312 179.542969 481.144531 C 180.027344 481.46875 180.496094 481.816406 180.949219 482.1875 C 181.398438 482.558594 181.832031 482.949219 182.246094 483.363281 C 182.660156 483.777344 183.050781 484.210938 183.421875 484.664062 C 183.792969 485.113281 184.140625 485.582031 184.464844 486.070312 C 184.789062 486.554688 185.089844 487.058594 185.363281 487.574219 C 185.640625 488.089844 185.886719 488.617188 186.113281 489.15625 C 186.335938 489.695312 186.53125 490.246094 186.703125 490.804688 C 186.871094 491.363281 187.011719 491.929688 187.128906 492.503906 C 187.242188 493.078125 187.328125 493.65625 187.382812 494.238281 C 187.441406 494.820312 187.46875 495.402344 187.46875 495.988281 Z M 187.46875 495.988281 " fill-opacity="1" fill-rule="nonzero"/><g clip-path="url(#e4c73e0a0b)"><path fill="#2169ac" d="M 562.050781 138.945312 L 562.050781 103.242188 C 562.050781 83.554688 546.046875 67.535156 526.378906 67.535156 L 178.550781 67.535156 C 158.878906 67.535156 142.875 83.554688 142.875 103.242188 L 142.875 138.945312 C 142.875 158.632812 158.878906 174.648438 178.550781 174.648438 L 178.550781 192.5 C 158.878906 192.5 142.875 208.519531 142.875 228.207031 L 142.875 263.910156 C 142.875 283.597656 158.878906 299.613281 178.550781 299.613281 L 178.550781 317.464844 C 158.878906 317.464844 142.875 333.484375 142.875 353.171875 L 142.875 388.875 C 142.875 408.5625 158.878906 424.578125 178.550781 424.578125 L 343.546875 424.578125 L 343.546875 470.746094 C 335.957031 473.4375 329.933594 479.464844 327.242188 487.0625 L 194.855469 487.0625 C 191.171875 476.671875 181.261719 469.210938 169.632812 469.210938 C 154.878906 469.210938 142.875 481.222656 142.875 495.988281 C 142.875 510.753906 154.878906 522.765625 169.632812 522.765625 C 181.257812 522.765625 191.171875 515.304688 194.855469 504.914062 L 327.242188 504.914062 C 330.925781 515.304688 340.835938 522.765625 352.464844 522.765625 C 364.089844 522.765625 374.003906 515.304688 377.6875 504.914062 L 510.074219 504.914062 C 513.753906 515.304688 523.667969 522.765625 535.296875 522.765625 C 550.050781 522.765625 562.050781 510.753906 562.050781 495.988281 C 562.050781 481.222656 550.050781 469.210938 535.296875 469.210938 C 523.667969 469.210938 513.753906 476.671875 510.074219 487.0625 L 377.6875 487.0625 C 374.996094 479.464844 368.972656 473.4375 361.382812 470.746094 L 361.382812 424.578125 L 526.378906 424.578125 C 546.046875 424.578125 562.050781 408.5625 562.050781 388.875 L 562.050781 353.171875 C 562.050781 333.484375 546.046875 317.464844 526.378906 317.464844 L 526.378906 299.613281 C 546.046875 299.613281 562.050781 283.597656 562.050781 263.910156 L 562.050781 228.207031 C 562.050781 208.519531 546.046875 192.5 526.378906 192.5 L 526.378906 174.648438 C 546.046875 174.648438 562.050781 158.632812 562.050781 138.945312 Z M 169.632812 504.914062 C 164.714844 504.914062 160.714844 500.910156 160.714844 495.988281 C 160.714844 491.066406 164.714844 487.0625 169.632812 487.0625 C 174.550781 487.0625 178.550781 491.066406 178.550781 495.988281 C 178.550781 500.910156 174.550781 504.914062 169.632812 504.914062 Z M 535.296875 487.0625 C 540.214844 487.0625 544.214844 491.066406 544.214844 495.988281 C 544.214844 500.910156 540.214844 504.914062 535.296875 504.914062 C 530.378906 504.914062 526.378906 500.910156 526.378906 495.988281 C 526.378906 491.066406 530.378906 487.0625 535.296875 487.0625 Z M 352.464844 504.914062 C 347.546875 504.914062 343.546875 500.910156 343.546875 495.988281 C 343.546875 491.066406 347.546875 487.0625 352.464844 487.0625 C 357.382812 487.0625 361.382812 491.066406 361.382812 495.988281 C 361.382812 500.910156 357.382812 504.914062 352.464844 504.914062 Z M 544.214844 353.171875 L 544.214844 388.875 C 544.214844 398.71875 536.210938 406.726562 526.378906 406.726562 L 178.550781 406.726562 C 168.714844 406.726562 160.714844 398.71875 160.714844 388.875 L 160.714844 353.171875 C 160.714844 343.328125 168.714844 335.320312 178.550781 335.320312 L 526.378906 335.320312 C 536.210938 335.320312 544.214844 343.328125 544.214844 353.171875 Z M 196.386719 317.464844 L 196.386719 299.613281 L 508.539062 299.613281 L 508.539062 317.464844 Z M 544.214844 228.207031 L 544.214844 263.910156 C 544.214844 273.753906 536.210938 281.761719 526.378906 281.761719 L 178.550781 281.761719 C 168.714844 281.761719 160.714844 273.753906 160.714844 263.910156 L 160.714844 228.207031 C 160.714844 218.363281 168.714844 210.355469 178.550781 210.355469 L 526.378906 210.355469 C 536.210938 210.355469 544.214844 218.363281 544.214844 228.207031 Z M 196.386719 192.5 L 196.386719 174.648438 L 508.539062 174.648438 L 508.539062 192.5 Z M 178.550781 156.796875 C 168.714844 156.796875 160.714844 148.789062 160.714844 138.945312 L 160.714844 103.242188 C 160.714844 93.398438 168.714844 85.386719 178.550781 85.386719 L 526.378906 85.386719 C 536.210938 85.386719 544.214844 93.398438 544.214844 103.242188 L 544.214844 138.945312 C 544.214844 148.789062 536.210938 156.796875 526.378906 156.796875 Z M 178.550781 156.796875 " fill-opacity="1" fill-rule="nonzero"/></g><path fill="#2169ac" d="M 517.457031 112.167969 L 437.191406 112.167969 C 432.265625 112.167969 428.273438 116.164062 428.273438 121.09375 C 428.273438 126.023438 432.265625 130.019531 437.191406 130.019531 L 517.457031 130.019531 C 522.382812 130.019531 526.378906 126.023438 526.378906 121.09375 C 526.378906 116.164062 522.382812 112.167969 517.457031 112.167969 Z M 517.457031 112.167969 " fill-opacity="1" fill-rule="nonzero"/><path fill="#2169ac" d="M 401.515625 112.167969 L 321.25 112.167969 C 316.324219 112.167969 312.332031 116.164062 312.332031 121.09375 C 312.332031 126.023438 316.324219 130.019531 321.25 130.019531 L 401.515625 130.019531 C 406.441406 130.019531 410.433594 126.023438 410.433594 121.09375 C 410.433594 116.164062 406.441406 112.167969 401.515625 112.167969 Z M 401.515625 112.167969 " fill-opacity="1" fill-rule="nonzero"/><path fill="#2169ac" d="M 401.515625 237.132812 L 321.25 237.132812 C 316.324219 237.132812 312.332031 241.128906 312.332031 246.058594 C 312.332031 250.988281 316.324219 254.984375 321.25 254.984375 L 401.515625 254.984375 C 406.441406 254.984375 410.433594 250.988281 410.433594 246.058594 C 410.433594 241.128906 406.441406 237.132812 401.515625 237.132812 Z M 401.515625 237.132812 " fill-opacity="1" fill-rule="nonzero"/><path fill="#2169ac" d="M 401.515625 362.097656 L 321.25 362.097656 C 316.324219 362.097656 312.332031 366.09375 312.332031 371.023438 C 312.332031 375.953125 316.324219 379.949219 321.25 379.949219 L 401.515625 379.949219 C 406.441406 379.949219 410.433594 375.953125 410.433594 371.023438 C 410.433594 366.09375 406.441406 362.097656 401.515625 362.097656 Z M 401.515625 362.097656 " fill-opacity="1" fill-rule="nonzero"/><path fill="#2169ac" d="M 517.457031 237.132812 L 437.191406 237.132812 C 432.265625 237.132812 428.273438 241.128906 428.273438 246.058594 C 428.273438 250.988281 432.265625 254.984375 437.191406 254.984375 L 517.457031 254.984375 C 522.382812 254.984375 526.378906 250.988281 526.378906 246.058594 C 526.378906 241.128906 522.382812 237.132812 517.457031 237.132812 Z M 517.457031 237.132812 " fill-opacity="1" fill-rule="nonzero"/><path fill="#2169ac" d="M 517.457031 362.097656 L 437.191406 362.097656 C 432.265625 362.097656 428.273438 366.09375 428.273438 371.023438 C 428.273438 375.953125 432.265625 379.949219 437.191406 379.949219 L 517.457031 379.949219 C 522.382812 379.949219 526.378906 375.953125 526.378906 371.023438 C 526.378906 366.09375 522.382812 362.097656 517.457031 362.097656 Z M 517.457031 362.097656 " fill-opacity="1" fill-rule="nonzero"/><path fill="#2169ac" d="M 196.386719 121.09375 C 196.386719 121.679688 196.332031 122.257812 196.21875 122.835938 C 196.101562 123.410156 195.933594 123.96875 195.710938 124.507812 C 195.484375 125.050781 195.210938 125.566406 194.886719 126.050781 C 194.558594 126.539062 194.191406 126.988281 193.777344 127.40625 C 193.363281 127.820312 192.910156 128.1875 192.425781 128.515625 C 191.9375 128.839844 191.425781 129.113281 190.882812 129.339844 C 190.34375 129.5625 189.785156 129.734375 189.210938 129.847656 C 188.636719 129.960938 188.054688 130.019531 187.46875 130.019531 C 186.882812 130.019531 186.304688 129.960938 185.730469 129.847656 C 185.15625 129.734375 184.597656 129.5625 184.058594 129.339844 C 183.515625 129.113281 183 128.839844 182.515625 128.515625 C 182.027344 128.1875 181.578125 127.820312 181.164062 127.40625 C 180.75 126.988281 180.378906 126.539062 180.054688 126.050781 C 179.730469 125.566406 179.453125 125.050781 179.230469 124.507812 C 179.007812 123.96875 178.835938 123.410156 178.722656 122.835938 C 178.609375 122.257812 178.550781 121.679688 178.550781 121.09375 C 178.550781 120.507812 178.609375 119.925781 178.722656 119.351562 C 178.835938 118.777344 179.007812 118.21875 179.230469 117.675781 C 179.453125 117.136719 179.730469 116.621094 180.054688 116.132812 C 180.378906 115.644531 180.75 115.195312 181.164062 114.78125 C 181.578125 114.367188 182.027344 113.996094 182.515625 113.671875 C 183 113.34375 183.515625 113.070312 184.058594 112.847656 C 184.597656 112.621094 185.15625 112.453125 185.730469 112.339844 C 186.304688 112.222656 186.882812 112.167969 187.46875 112.167969 C 188.054688 112.167969 188.636719 112.222656 189.210938 112.339844 C 189.785156 112.453125 190.34375 112.621094 190.882812 112.847656 C 191.425781 113.070312 191.9375 113.34375 192.425781 113.671875 C 192.910156 113.996094 193.363281 114.367188 193.777344 114.78125 C 194.191406 115.195312 194.558594 115.644531 194.886719 116.132812 C 195.210938 116.621094 195.484375 117.136719 195.710938 117.675781 C 195.933594 118.21875 196.101562 118.777344 196.21875 119.351562 C 196.332031 119.925781 196.386719 120.507812 196.386719 121.09375 Z M 196.386719 121.09375 " fill-opacity="1" fill-rule="nonzero"/><path fill="#2169ac" d="M 196.386719 246.058594 C 196.386719 246.644531 196.332031 247.222656 196.21875 247.800781 C 196.101562 248.375 195.933594 248.933594 195.710938 249.472656 C 195.484375 250.015625 195.210938 250.53125 194.886719 251.015625 C 194.558594 251.503906 194.191406 251.953125 193.777344 252.371094 C 193.363281 252.785156 192.910156 253.152344 192.425781 253.480469 C 191.9375 253.804688 191.425781 254.082031 190.882812 254.304688 C 190.34375 254.527344 189.785156 254.699219 189.210938 254.8125 C 188.636719 254.925781 188.054688 254.984375 187.46875 254.984375 C 186.882812 254.984375 186.304688 254.925781 185.730469 254.8125 C 185.15625 254.699219 184.597656 254.527344 184.058594 254.304688 C 183.515625 254.082031 183 253.804688 182.515625 253.480469 C 182.027344 253.152344 181.578125 252.785156 181.164062 252.371094 C 180.75 251.953125 180.378906 251.503906 180.054688 251.015625 C 179.730469 250.53125 179.453125 250.015625 179.230469 249.472656 C 179.007812 248.933594 178.835938 248.375 178.722656 247.800781 C 178.609375 247.222656 178.550781 246.644531 178.550781 246.058594 C 178.550781 245.472656 178.609375 244.890625 178.722656 244.316406 C 178.835938 243.742188 179.007812 243.183594 179.230469 242.640625 C 179.453125 242.101562 179.730469 241.585938 180.054688 241.097656 C 180.378906 240.613281 180.75 240.160156 181.164062 239.746094 C 181.578125 239.332031 182.027344 238.960938 182.515625 238.636719 C 183 238.308594 183.515625 238.035156 184.058594 237.8125 C 184.597656 237.585938 185.15625 237.417969 185.730469 237.304688 C 186.304688 237.1875 186.882812 237.132812 187.46875 237.132812 C 188.054688 237.132812 188.636719 237.1875 189.210938 237.304688 C 189.785156 237.417969 190.34375 237.585938 190.882812 237.8125 C 191.425781 238.035156 191.9375 238.308594 192.425781 238.636719 C 192.910156 238.960938 193.363281 239.332031 193.777344 239.746094 C 194.191406 240.160156 194.558594 240.613281 194.886719 241.097656 C 195.210938 241.585938 195.484375 242.101562 195.710938 242.640625 C 195.933594 243.183594 196.101562 243.742188 196.21875 244.316406 C 196.332031 244.890625 196.386719 245.472656 196.386719 246.058594 Z M 196.386719 246.058594 " fill-opacity="1" fill-rule="nonzero"/><path fill="#2169ac" d="M 232.0625 246.058594 C 232.0625 246.644531 232.007812 247.222656 231.890625 247.800781 C 231.777344 248.375 231.609375 248.933594 231.382812 249.472656 C 231.160156 250.015625 230.886719 250.53125 230.558594 251.015625 C 230.234375 251.503906 229.863281 251.953125 229.449219 252.371094 C 229.035156 252.785156 228.585938 253.152344 228.097656 253.480469 C 227.613281 253.804688 227.097656 254.082031 226.558594 254.304688 C 226.015625 254.527344 225.457031 254.699219 224.882812 254.8125 C 224.308594 254.925781 223.730469 254.984375 223.144531 254.984375 C 222.558594 254.984375 221.980469 254.925781 221.40625 254.8125 C 220.832031 254.699219 220.273438 254.527344 219.730469 254.304688 C 219.191406 254.082031 218.675781 253.804688 218.191406 253.480469 C 217.703125 253.152344 217.253906 252.785156 216.839844 252.371094 C 216.425781 251.953125 216.054688 251.503906 215.730469 251.015625 C 215.402344 250.53125 215.128906 250.015625 214.90625 249.472656 C 214.679688 248.933594 214.511719 248.375 214.398438 247.800781 C 214.28125 247.222656 214.226562 246.644531 214.226562 246.058594 C 214.226562 245.472656 214.28125 244.890625 214.398438 244.316406 C 214.511719 243.742188 214.679688 243.183594 214.90625 242.640625 C 215.128906 242.101562 215.402344 241.585938 215.730469 241.097656 C 216.054688 240.613281 216.425781 240.160156 216.839844 239.746094 C 217.253906 239.332031 217.703125 238.960938 218.191406 238.636719 C 218.675781 238.308594 219.191406 238.035156 219.730469 237.8125 C 220.273438 237.585938 220.832031 237.417969 221.40625 237.304688 C 221.980469 237.1875 222.558594 237.132812 223.144531 237.132812 C 223.730469 237.132812 224.308594 237.1875 224.882812 237.304688 C 225.457031 237.417969 226.015625 237.585938 226.558594 237.8125 C 227.097656 238.035156 227.613281 238.308594 228.097656 238.636719 C 228.585938 238.960938 229.035156 239.332031 229.449219 239.746094 C 229.863281 240.160156 230.234375 240.613281 230.558594 241.097656 C 230.886719 241.585938 231.160156 242.101562 231.382812 242.640625 C 231.609375 243.183594 231.777344 243.742188 231.890625 244.316406 C 232.007812 244.890625 232.0625 245.472656 232.0625 246.058594 Z M 232.0625 246.058594 " fill-opacity="1" fill-rule="nonzero"/><path fill="#2169ac" d="M 267.738281 246.058594 C 267.738281 246.644531 267.679688 247.222656 267.566406 247.800781 C 267.453125 248.375 267.28125 248.933594 267.058594 249.472656 C 266.835938 250.015625 266.558594 250.53125 266.234375 251.015625 C 265.910156 251.503906 265.539062 251.953125 265.125 252.371094 C 264.710938 252.785156 264.261719 253.152344 263.773438 253.480469 C 263.285156 253.804688 262.773438 254.082031 262.230469 254.304688 C 261.691406 254.527344 261.132812 254.699219 260.558594 254.8125 C 259.984375 254.925781 259.40625 254.984375 258.820312 254.984375 C 258.234375 254.984375 257.652344 254.925781 257.078125 254.8125 C 256.503906 254.699219 255.945312 254.527344 255.40625 254.304688 C 254.863281 254.082031 254.351562 253.804688 253.863281 253.480469 C 253.378906 253.152344 252.925781 252.785156 252.511719 252.371094 C 252.097656 251.953125 251.730469 251.503906 251.402344 251.015625 C 251.078125 250.53125 250.804688 250.015625 250.578125 249.472656 C 250.355469 248.933594 250.1875 248.375 250.070312 247.800781 C 249.957031 247.222656 249.898438 246.644531 249.898438 246.058594 C 249.898438 245.472656 249.957031 244.890625 250.070312 244.316406 C 250.1875 243.742188 250.355469 243.183594 250.578125 242.640625 C 250.804688 242.101562 251.078125 241.585938 251.402344 241.097656 C 251.730469 240.613281 252.097656 240.160156 252.511719 239.746094 C 252.925781 239.332031 253.378906 238.960938 253.863281 238.636719 C 254.351562 238.308594 254.863281 238.035156 255.40625 237.8125 C 255.945312 237.585938 256.503906 237.417969 257.078125 237.304688 C 257.652344 237.1875 258.234375 237.132812 258.820312 237.132812 C 259.40625 237.132812 259.984375 237.1875 260.558594 237.304688 C 261.132812 237.417969 261.691406 237.585938 262.230469 237.8125 C 262.773438 238.035156 263.285156 238.308594 263.773438 238.636719 C 264.261719 238.960938 264.710938 239.332031 265.125 239.746094 C 265.539062 240.160156 265.910156 240.613281 266.234375 241.097656 C 266.558594 241.585938 266.835938 242.101562 267.058594 242.640625 C 267.28125 243.183594 267.453125 243.742188 267.566406 244.316406 C 267.679688 244.890625 267.738281 245.472656 267.738281 246.058594 Z M 267.738281 246.058594 " fill-opacity="1" fill-rule="nonzero"/><path fill="#2169ac" d="M 267.738281 371.023438 C 267.738281 371.609375 267.679688 372.1875 267.566406 372.765625 C 267.453125 373.339844 267.28125 373.898438 267.058594 374.4375 C 266.835938 374.980469 266.558594 375.496094 266.234375 375.980469 C 265.910156 376.46875 265.539062 376.921875 265.125 377.335938 C 264.710938 377.75 264.261719 378.117188 263.773438 378.445312 C 263.285156 378.769531 262.773438 379.046875 262.230469 379.269531 C 261.691406 379.492188 261.132812 379.664062 260.558594 379.777344 C 259.984375 379.890625 259.40625 379.949219 258.820312 379.949219 C 258.234375 379.949219 257.652344 379.890625 257.078125 379.777344 C 256.503906 379.664062 255.945312 379.492188 255.40625 379.269531 C 254.863281 379.046875 254.351562 378.769531 253.863281 378.445312 C 253.378906 378.117188 252.925781 377.75 252.511719 377.335938 C 252.097656 376.921875 251.730469 376.46875 251.402344 375.980469 C 251.078125 375.496094 250.804688 374.980469 250.578125 374.4375 C 250.355469 373.898438 250.1875 373.339844 250.070312 372.765625 C 249.957031 372.1875 249.898438 371.609375 249.898438 371.023438 C 249.898438 370.4375 249.957031 369.855469 250.070312 369.28125 C 250.1875 368.707031 250.355469 368.148438 250.578125 367.605469 C 250.804688 367.066406 251.078125 366.550781 251.402344 366.0625 C 251.730469 365.578125 252.097656 365.125 252.511719 364.710938 C 252.925781 364.296875 253.378906 363.925781 253.863281 363.601562 C 254.351562 363.277344 254.863281 363 255.40625 362.777344 C 255.945312 362.550781 256.503906 362.382812 257.078125 362.269531 C 257.652344 362.152344 258.234375 362.097656 258.820312 362.097656 C 259.40625 362.097656 259.984375 362.152344 260.558594 362.269531 C 261.132812 362.382812 261.691406 362.550781 262.230469 362.777344 C 262.773438 363 263.285156 363.277344 263.773438 363.601562 C 264.261719 363.925781 264.710938 364.296875 265.125 364.710938 C 265.539062 365.125 265.910156 365.578125 266.234375 366.0625 C 266.558594 366.550781 266.835938 367.066406 267.058594 367.605469 C 267.28125 368.148438 267.453125 368.707031 267.566406 369.28125 C 267.679688 369.855469 267.738281 370.4375 267.738281 371.023438 Z M 267.738281 371.023438 " fill-opacity="1" fill-rule="nonzero"/><path fill="#2169ac" d="M 232.0625 371.023438 C 232.0625 371.609375 232.007812 372.1875 231.890625 372.765625 C 231.777344 373.339844 231.609375 373.898438 231.382812 374.4375 C 231.160156 374.980469 230.886719 375.496094 230.558594 375.980469 C 230.234375 376.46875 229.863281 376.921875 229.449219 377.335938 C 229.035156 377.75 228.585938 378.117188 228.097656 378.445312 C 227.613281 378.769531 227.097656 379.046875 226.558594 379.269531 C 226.015625 379.492188 225.457031 379.664062 224.882812 379.777344 C 224.308594 379.890625 223.730469 379.949219 223.144531 379.949219 C 222.558594 379.949219 221.980469 379.890625 221.40625 379.777344 C 220.832031 379.664062 220.273438 379.492188 219.730469 379.269531 C 219.191406 379.046875 218.675781 378.769531 218.191406 378.445312 C 217.703125 378.117188 217.253906 377.75 216.839844 377.335938 C 216.425781 376.921875 216.054688 376.46875 215.730469 375.980469 C 215.402344 375.496094 215.128906 374.980469 214.90625 374.4375 C 214.679688 373.898438 214.511719 373.339844 214.398438 372.765625 C 214.28125 372.1875 214.226562 371.609375 214.226562 371.023438 C 214.226562 370.4375 214.28125 369.855469 214.398438 369.28125 C 214.511719 368.707031 214.679688 368.148438 214.90625 367.605469 C 215.128906 367.066406 215.402344 366.550781 215.730469 366.0625 C 216.054688 365.578125 216.425781 365.125 216.839844 364.710938 C 217.253906 364.296875 217.703125 363.925781 218.191406 363.601562 C 218.675781 363.277344 219.191406 363 219.730469 362.777344 C 220.273438 362.550781 220.832031 362.382812 221.40625 362.269531 C 221.980469 362.152344 222.558594 362.097656 223.144531 362.097656 C 223.730469 362.097656 224.308594 362.152344 224.882812 362.269531 C 225.457031 362.382812 226.015625 362.550781 226.558594 362.777344 C 227.097656 363 227.613281 363.277344 228.097656 363.601562 C 228.585938 363.925781 229.035156 364.296875 229.449219 364.710938 C 229.863281 365.125 230.234375 365.578125 230.558594 366.0625 C 230.886719 366.550781 231.160156 367.066406 231.382812 367.605469 C 231.609375 368.148438 231.777344 368.707031 231.890625 369.28125 C 232.007812 369.855469 232.0625 370.4375 232.0625 371.023438 Z M 232.0625 371.023438 " fill-opacity="1" fill-rule="nonzero"/><path fill="#2169ac" d="M 196.386719 371.023438 C 196.386719 371.609375 196.332031 372.1875 196.21875 372.765625 C 196.101562 373.339844 195.933594 373.898438 195.710938 374.4375 C 195.484375 374.980469 195.210938 375.496094 194.886719 375.980469 C 194.558594 376.46875 194.191406 376.921875 193.777344 377.335938 C 193.363281 377.75 192.910156 378.117188 192.425781 378.445312 C 191.9375 378.769531 191.425781 379.046875 190.882812 379.269531 C 190.34375 379.492188 189.785156 379.664062 189.210938 379.777344 C 188.636719 379.890625 188.054688 379.949219 187.46875 379.949219 C 186.882812 379.949219 186.304688 379.890625 185.730469 379.777344 C 185.15625 379.664062 184.597656 379.492188 184.058594 379.269531 C 183.515625 379.046875 183 378.769531 182.515625 378.445312 C 182.027344 378.117188 181.578125 377.75 181.164062 377.335938 C 180.75 376.921875 180.378906 376.46875 180.054688 375.980469 C 179.730469 375.496094 179.453125 374.980469 179.230469 374.4375 C 179.007812 373.898438 178.835938 373.339844 178.722656 372.765625 C 178.609375 372.1875 178.550781 371.609375 178.550781 371.023438 C 178.550781 370.4375 178.609375 369.855469 178.722656 369.28125 C 178.835938 368.707031 179.007812 368.148438 179.230469 367.605469 C 179.453125 367.066406 179.730469 366.550781 180.054688 366.0625 C 180.378906 365.578125 180.75 365.125 181.164062 364.710938 C 181.578125 364.296875 182.027344 363.925781 182.515625 363.601562 C 183 363.277344 183.515625 363 184.058594 362.777344 C 184.597656 362.550781 185.15625 362.382812 185.730469 362.269531 C 186.304688 362.152344 186.882812 362.097656 187.46875 362.097656 C 188.054688 362.097656 188.636719 362.152344 189.210938 362.269531 C 189.785156 362.382812 190.34375 362.550781 190.882812 362.777344 C 191.425781 363 191.9375 363.277344 192.425781 363.601562 C 192.910156 363.925781 193.363281 364.296875 193.777344 364.710938 C 194.191406 365.125 194.558594 365.578125 194.886719 366.0625 C 195.210938 366.550781 195.484375 367.066406 195.710938 367.605469 C 195.933594 368.148438 196.101562 368.707031 196.21875 369.28125 C 196.332031 369.855469 196.386719 370.4375 196.386719 371.023438 Z M 196.386719 371.023438 " fill-opacity="1" fill-rule="nonzero"/><path fill="#2169ac" d="M 232.0625 121.09375 C 232.0625 121.679688 232.007812 122.257812 231.890625 122.835938 C 231.777344 123.410156 231.609375 123.96875 231.382812 124.507812 C 231.160156 125.050781 230.886719 125.566406 230.558594 126.050781 C 230.234375 126.539062 229.863281 126.988281 229.449219 127.40625 C 229.035156 127.820312 228.585938 128.1875 228.097656 128.515625 C 227.613281 128.839844 227.097656 129.113281 226.558594 129.339844 C 226.015625 129.5625 225.457031 129.734375 224.882812 129.847656 C 224.308594 129.960938 223.730469 130.019531 223.144531 130.019531 C 222.558594 130.019531 221.980469 129.960938 221.40625 129.847656 C 220.832031 129.734375 220.273438 129.5625 219.730469 129.339844 C 219.191406 129.113281 218.675781 128.839844 218.191406 128.515625 C 217.703125 128.1875 217.253906 127.820312 216.839844 127.40625 C 216.425781 126.988281 216.054688 126.539062 215.730469 126.050781 C 215.402344 125.566406 215.128906 125.050781 214.90625 124.507812 C 214.679688 123.96875 214.511719 123.410156 214.398438 122.835938 C 214.28125 122.257812 214.226562 121.679688 214.226562 121.09375 C 214.226562 120.507812 214.28125 119.925781 214.398438 119.351562 C 214.511719 118.777344 214.679688 118.21875 214.90625 117.675781 C 215.128906 117.136719 215.402344 116.621094 215.730469 116.132812 C 216.054688 115.644531 216.425781 115.195312 216.839844 114.78125 C 217.253906 114.367188 217.703125 113.996094 218.191406 113.671875 C 218.675781 113.34375 219.191406 113.070312 219.730469 112.847656 C 220.273438 112.621094 220.832031 112.453125 221.40625 112.339844 C 221.980469 112.222656 222.558594 112.167969 223.144531 112.167969 C 223.730469 112.167969 224.308594 112.222656 224.882812 112.339844 C 225.457031 112.453125 226.015625 112.621094 226.558594 112.847656 C 227.097656 113.070312 227.613281 113.34375 228.097656 113.671875 C 228.585938 113.996094 229.035156 114.367188 229.449219 114.78125 C 229.863281 115.195312 230.234375 115.644531 230.558594 116.132812 C 230.886719 116.621094 231.160156 117.136719 231.382812 117.675781 C 231.609375 118.21875 231.777344 118.777344 231.890625 119.351562 C 232.007812 119.925781 232.0625 120.507812 232.0625 121.09375 Z M 232.0625 121.09375 " fill-opacity="1" fill-rule="nonzero"/><path fill="#2169ac" d="M 267.738281 121.09375 C 267.738281 121.679688 267.679688 122.257812 267.566406 122.835938 C 267.453125 123.410156 267.28125 123.96875 267.058594 124.507812 C 266.835938 125.050781 266.558594 125.566406 266.234375 126.050781 C 265.910156 126.539062 265.539062 126.988281 265.125 127.40625 C 264.710938 127.820312 264.261719 128.1875 263.773438 128.515625 C 263.285156 128.839844 262.773438 129.113281 262.230469 129.339844 C 261.691406 129.5625 261.132812 129.734375 260.558594 129.847656 C 259.984375 129.960938 259.40625 130.019531 258.820312 130.019531 C 258.234375 130.019531 257.652344 129.960938 257.078125 129.847656 C 256.503906 129.734375 255.945312 129.5625 255.40625 129.339844 C 254.863281 129.113281 254.351562 128.839844 253.863281 128.515625 C 253.378906 128.1875 252.925781 127.820312 252.511719 127.40625 C 252.097656 126.988281 251.730469 126.539062 251.402344 126.050781 C 251.078125 125.566406 250.804688 125.050781 250.578125 124.507812 C 250.355469 123.96875 250.1875 123.410156 250.070312 122.835938 C 249.957031 122.257812 249.898438 121.679688 249.898438 121.09375 C 249.898438 120.507812 249.957031 119.925781 250.070312 119.351562 C 250.1875 118.777344 250.355469 118.21875 250.578125 117.675781 C 250.804688 117.136719 251.078125 116.621094 251.402344 116.132812 C 251.730469 115.644531 252.097656 115.195312 252.511719 114.78125 C 252.925781 114.367188 253.378906 113.996094 253.863281 113.671875 C 254.351562 113.34375 254.863281 113.070312 255.40625 112.847656 C 255.945312 112.621094 256.503906 112.453125 257.078125 112.339844 C 257.652344 112.222656 258.234375 112.167969 258.820312 112.167969 C 259.40625 112.167969 259.984375 112.222656 260.558594 112.339844 C 261.132812 112.453125 261.691406 112.621094 262.230469 112.847656 C 262.773438 113.070312 263.285156 113.34375 263.773438 113.671875 C 264.261719 113.996094 264.710938 114.367188 265.125 114.78125 C 265.539062 115.195312 265.910156 115.644531 266.234375 116.132812 C 266.558594 116.621094 266.835938 117.136719 267.058594 117.675781 C 267.28125 118.21875 267.453125 118.777344 267.566406 119.351562 C 267.679688 119.925781 267.738281 120.507812 267.738281 121.09375 Z M 267.738281 121.09375 " fill-opacity="1" fill-rule="nonzero"/></svg>