<svg xmlns="http://www.w3.org/2000/svg" xmlns:xlink="http://www.w3.org/1999/xlink" width="1024" zoomAndPan="magnify" viewBox="0 0 768 767.999994" height="1024" preserveAspectRatio="xMidYMid meet" version="1.0"><defs><clipPath id="7175b7d693"><path d="M 259 127.8125 L 692.875 127.8125 L 692.875 461 L 259 461 Z M 259 127.8125 " clip-rule="nonzero"/></clipPath></defs><g clip-path="url(#7175b7d693)"><path fill="#04fefe" d="M 328.054688 296.222656 C 327.839844 296.246094 327.628906 296.296875 327.425781 296.371094 C 327.222656 296.445312 327.03125 296.542969 326.851562 296.660156 C 326.671875 296.78125 326.507812 296.921875 326.363281 297.078125 C 326.21875 297.238281 326.09375 297.414062 325.988281 297.601562 C 325.882812 297.792969 325.804688 297.992188 325.746094 298.199219 C 325.691406 298.410156 325.660156 298.621094 325.65625 298.835938 C 325.648438 299.054688 325.671875 299.265625 325.714844 299.476562 C 325.761719 299.6875 325.832031 299.890625 325.929688 300.085938 L 362.164062 372.175781 C 363.109375 374.042969 364.523438 374.539062 366.414062 373.664062 C 366.816406 373.476562 367.132812 373.203125 367.371094 372.847656 C 421.300781 291.773438 475.042969 210.957031 528.597656 130.398438 C 529.175781 129.554688 529.917969 128.894531 530.820312 128.417969 C 531.722656 127.941406 532.679688 127.707031 533.699219 127.707031 L 691.03125 127.917969 C 691.160156 127.921875 691.289062 127.9375 691.417969 127.972656 C 691.542969 128.007812 691.664062 128.058594 691.777344 128.121094 C 691.890625 128.1875 691.992188 128.265625 692.085938 128.355469 C 692.183594 128.445312 692.261719 128.546875 692.332031 128.65625 C 692.402344 128.769531 692.453125 128.886719 692.492188 129.011719 C 692.53125 129.136719 692.554688 129.261719 692.5625 129.394531 C 692.570312 129.523438 692.5625 129.652344 692.535156 129.78125 C 692.511719 129.910156 692.46875 130.03125 692.414062 130.152344 C 692.011719 130.976562 691.691406 131.851562 691.457031 132.773438 C 691.21875 133.71875 690.84375 134.578125 690.324219 135.359375 C 660.429688 179.074219 630.214844 223.992188 599.683594 270.117188 C 599.34375 270.632812 598.945312 271.097656 598.488281 271.515625 C 598.03125 271.933594 597.535156 272.285156 596.992188 272.578125 C 596.453125 272.867188 595.882812 273.085938 595.289062 273.234375 C 594.699219 273.382812 594.097656 273.453125 593.488281 273.445312 L 534.511719 273.339844 C 534.378906 273.339844 534.246094 273.320312 534.113281 273.289062 C 533.980469 273.253906 533.855469 273.207031 533.734375 273.144531 C 533.613281 273.082031 533.503906 273.007812 533.402344 272.917969 C 533.300781 272.832031 533.210938 272.730469 533.132812 272.625 C 533.054688 272.515625 532.988281 272.398438 532.941406 272.273438 C 532.890625 272.148438 532.855469 272.019531 532.839844 271.890625 C 532.820312 271.757812 532.816406 271.625 532.832031 271.492188 C 532.84375 271.363281 532.875 271.234375 532.917969 271.109375 C 533.933594 268.039062 535.292969 265.214844 536.992188 262.640625 C 555.222656 234.890625 573.261719 206.8125 591.113281 178.398438 C 593.992188 173.816406 596.734375 168.929688 599.332031 163.734375 C 599.421875 163.554688 599.464844 163.367188 599.457031 163.167969 C 599.453125 162.96875 599.398438 162.785156 599.300781 162.613281 C 599.199219 162.441406 599.0625 162.304688 598.894531 162.199219 C 598.722656 162.097656 598.539062 162.042969 598.339844 162.035156 L 573.121094 160.792969 C 572.109375 160.746094 571.109375 160.824219 570.121094 161.03125 C 569.128906 161.238281 568.183594 161.566406 567.28125 162.015625 C 566.378906 162.46875 565.550781 163.023438 564.792969 163.6875 C 564.035156 164.351562 563.375 165.097656 562.8125 165.929688 C 498.515625 261.152344 435.078125 355.527344 372.503906 449.050781 C 370.238281 452.414062 367.441406 455.179688 365.03125 458.082031 C 362.363281 461.316406 360.050781 461.082031 358.089844 457.375 L 259.765625 272.523438 C 259.632812 272.277344 259.535156 272.015625 259.472656 271.746094 C 259.40625 271.472656 259.378906 271.195312 259.390625 270.914062 C 259.398438 270.632812 259.445312 270.359375 259.527344 270.089844 C 259.609375 269.820312 259.722656 269.566406 259.871094 269.328125 C 260.019531 269.085938 260.195312 268.871094 260.402344 268.675781 C 260.605469 268.480469 260.835938 268.316406 261.082031 268.179688 C 261.332031 268.046875 261.59375 267.941406 261.867188 267.875 C 262.144531 267.804688 262.421875 267.773438 262.707031 267.777344 C 293.191406 268.488281 322.574219 268.558594 350.863281 267.992188 C 354.003906 267.945312 357.027344 267.496094 359.929688 266.644531 C 361.515625 266.195312 362.742188 265.285156 363.613281 263.917969 C 379.980469 238.550781 417.84375 267.707031 400.59375 294.523438 C 394.761719 303.546875 386.199219 306.546875 374.914062 303.523438 C 368.042969 301.679688 364.394531 297.144531 356.921875 296.367188 C 347.308594 295.328125 337.6875 295.28125 328.054688 296.222656 Z M 328.054688 296.222656 " fill-opacity="1" fill-rule="nonzero"/></g><path fill="#b3b3b3" d="M 178.441406 176.417969 C 178.417969 177.40625 178.632812 178.316406 179.082031 179.144531 C 243.992188 300.296875 303.933594 409.976562 358.90625 508.175781 C 359.011719 508.367188 359.140625 508.542969 359.289062 508.703125 C 359.4375 508.863281 359.605469 509.003906 359.789062 509.125 C 359.972656 509.246094 360.164062 509.34375 360.371094 509.417969 C 360.578125 509.496094 360.789062 509.542969 361.007812 509.566406 C 361.226562 509.59375 361.445312 509.589844 361.664062 509.5625 C 361.878906 509.535156 362.089844 509.480469 362.296875 509.40625 C 362.5 509.328125 362.695312 509.226562 362.875 509.101562 C 363.054688 508.976562 363.21875 508.832031 363.367188 508.671875 C 366.863281 504.84375 370.003906 500.972656 372.789062 497.050781 C 406.105469 450.242188 442.199219 398.921875 481.066406 343.09375 C 493.582031 325.121094 506.519531 307.003906 519.886719 288.75 C 520.542969 287.851562 521.292969 287.046875 522.144531 286.332031 C 522.996094 285.617188 523.917969 285.011719 524.914062 284.519531 C 525.910156 284.023438 526.949219 283.65625 528.03125 283.414062 C 529.117188 283.171875 530.214844 283.058594 531.324219 283.082031 L 591.964844 284.109375 C 594.113281 284.15625 594.644531 285.113281 593.558594 286.980469 C 589.851562 293.355469 586 299.554688 582.011719 305.578125 C 507.371094 417.992188 433.582031 529.0625 360.640625 638.789062 C 360.167969 639.496094 359.636719 639.542969 359.046875 638.929688 C 357.394531 637.203125 355.871094 635.089844 354.476562 632.589844 C 315.679688 563.601562 278.054688 495.847656 241.59375 429.316406 C 229.976562 408.085938 218.585938 387.585938 207.414062 367.820312 C 162.859375 288.796875 118.808594 209.796875 75.265625 130.824219 C 75.191406 130.6875 75.136719 130.539062 75.101562 130.386719 C 75.0625 130.234375 75.046875 130.082031 75.046875 129.921875 C 75.050781 129.765625 75.074219 129.613281 75.117188 129.460938 C 75.15625 129.3125 75.21875 129.167969 75.296875 129.035156 C 75.375 128.902344 75.46875 128.78125 75.578125 128.671875 C 75.691406 128.5625 75.8125 128.46875 75.945312 128.394531 C 76.078125 128.316406 76.222656 128.261719 76.371094 128.222656 C 76.519531 128.183594 76.671875 128.164062 76.824219 128.167969 L 332.660156 128.097656 C 334.664062 128.097656 336.046875 129.015625 336.800781 130.859375 L 379.304688 233.734375 C 380.414062 236.402344 379.519531 237.714844 376.613281 237.667969 C 342.683594 237.101562 310.910156 236.886719 281.300781 237.027344 C 276.601562 237.050781 272.46875 238.71875 268.902344 242.023438 C 260.472656 249.816406 247.476562 249.675781 238.40625 243.617188 C 219.988281 231.253906 226.222656 203.871094 248.21875 199.160156 C 264.476562 195.652344 268.371094 211.238281 283.460938 210.8125 C 293.734375 210.53125 304.097656 210.257812 314.558594 210 C 314.726562 209.996094 314.894531 209.96875 315.054688 209.921875 C 315.214844 209.875 315.371094 209.808594 315.515625 209.722656 C 315.660156 209.636719 315.789062 209.535156 315.910156 209.414062 C 316.027344 209.296875 316.128906 209.164062 316.214844 209.019531 C 316.300781 208.875 316.367188 208.71875 316.410156 208.558594 C 316.457031 208.394531 316.480469 208.230469 316.484375 208.0625 C 316.488281 207.894531 316.472656 207.726562 316.433594 207.5625 C 316.394531 207.398438 316.335938 207.242188 316.257812 207.09375 L 300.320312 176.734375 C 300.105469 176.328125 299.84375 175.957031 299.527344 175.625 C 299.207031 175.289062 298.851562 175.003906 298.457031 174.765625 C 298.058594 174.53125 297.636719 174.347656 297.191406 174.226562 C 296.742188 174.105469 296.289062 174.042969 295.824219 174.042969 L 180.886719 174.042969 C 179.304688 174.042969 178.488281 174.832031 178.441406 176.417969 Z M 178.441406 176.417969 " fill-opacity="1" fill-rule="nonzero"/></svg>