<svg xmlns="http://www.w3.org/2000/svg" xmlns:xlink="http://www.w3.org/1999/xlink" width="1024" zoomAndPan="magnify" viewBox="0 0 768 767.999994" height="1024" preserveAspectRatio="xMidYMid meet" version="1.0"><defs><clipPath id="fb7c9be513"><path d="M 99.699219 180.371094 L 668.199219 180.371094 L 668.199219 240 L 99.699219 240 Z M 99.699219 180.371094 " clip-rule="nonzero"/></clipPath><clipPath id="774b3c3db1"><path d="M 99.699219 255 L 668.199219 255 L 668.199219 587.621094 L 99.699219 587.621094 Z M 99.699219 255 " clip-rule="nonzero"/></clipPath></defs><path fill="#203b72" d="M 296.179688 375.003906 C 285.21875 375.917969 274.203125 376.367188 263.148438 376.367188 C 251.425781 376.367188 239.65625 375.859375 227.863281 374.839844 C 226.277344 385.625 225.246094 397.5 224.9375 410.363281 L 299.082031 410.363281 C 298.773438 397.558594 297.738281 385.742188 296.179688 375.003906 Z M 296.179688 375.003906 " fill-opacity="1" fill-rule="nonzero"/><path fill="#203b72" d="M 230.796875 478.585938 C 238.328125 512.972656 251.542969 532.613281 261.984375 532.613281 C 272.449219 532.613281 285.710938 512.902344 293.242188 478.421875 C 272.566406 476.800781 251.730469 476.859375 230.796875 478.585938 Z M 230.796875 478.585938 " fill-opacity="1" fill-rule="nonzero"/><path fill="#203b72" d="M 227.863281 462.3125 C 250.765625 460.339844 273.566406 460.28125 296.179688 462.148438 C 297.753906 451.421875 298.773438 439.605469 299.078125 426.824219 L 224.9375 426.824219 C 225.242188 439.675781 226.277344 451.539062 227.863281 462.3125 Z M 227.863281 462.3125 " fill-opacity="1" fill-rule="nonzero"/><g clip-path="url(#fb7c9be513)"><path fill="#10a4de" d="M 99.699219 180.453125 L 99.699219 239.371094 L 668.199219 239.371094 L 668.199219 180.453125 Z M 146.085938 218.117188 L 145.6875 218.117188 C 141.140625 218.117188 137.464844 214.441406 137.464844 209.894531 C 137.464844 205.347656 141.140625 201.671875 145.6875 201.671875 L 146.085938 201.671875 C 150.632812 201.671875 154.308594 205.347656 154.308594 209.894531 C 154.308594 214.441406 150.632812 218.117188 146.085938 218.117188 Z M 176.050781 218.117188 L 175.652344 218.117188 C 171.105469 218.117188 167.429688 214.441406 167.429688 209.894531 C 167.429688 205.347656 171.105469 201.671875 175.652344 201.671875 L 176.050781 201.671875 C 180.59375 201.671875 184.273438 205.347656 184.273438 209.894531 C 184.273438 214.441406 180.597656 218.117188 176.050781 218.117188 Z M 205.980469 218.117188 L 205.617188 218.117188 C 201.070312 218.117188 197.394531 214.441406 197.394531 209.894531 C 197.394531 205.347656 201.070312 201.671875 205.617188 201.671875 L 205.980469 201.671875 C 210.523438 201.671875 214.214844 205.347656 214.214844 209.894531 C 214.214844 214.441406 210.527344 218.117188 205.980469 218.117188 Z M 613.898438 218.117188 L 247.832031 218.117188 C 243.296875 218.117188 239.609375 214.441406 239.609375 209.894531 C 239.609375 205.347656 243.296875 201.671875 247.832031 201.671875 L 613.898438 201.671875 C 618.433594 201.671875 622.121094 205.347656 622.121094 209.894531 C 622.121094 214.441406 618.433594 218.117188 613.898438 218.117188 Z M 613.898438 218.117188 " fill-opacity="1" fill-rule="nonzero"/></g><g clip-path="url(#774b3c3db1)"><path fill="#203b72" d="M 99.699219 587.535156 L 668.199219 587.535156 L 668.199219 255.820312 L 99.699219 255.820312 Z M 423.011719 324.015625 L 629.144531 324.015625 C 633.691406 324.015625 637.367188 327.703125 637.367188 332.242188 C 637.367188 336.785156 633.691406 340.476562 629.144531 340.476562 L 423.011719 340.476562 C 418.46875 340.476562 414.777344 336.785156 414.777344 332.242188 C 414.777344 327.703125 418.46875 324.015625 423.011719 324.015625 Z M 423.011719 367.179688 L 629.144531 367.179688 C 633.691406 367.179688 637.367188 370.855469 637.367188 375.402344 C 637.367188 379.949219 633.691406 383.625 629.144531 383.625 L 423.011719 383.625 C 418.46875 383.625 414.777344 379.949219 414.777344 375.402344 C 414.777344 370.855469 418.46875 367.179688 423.011719 367.179688 Z M 423.011719 410.363281 L 629.144531 410.363281 C 633.691406 410.363281 637.367188 414.054688 637.367188 418.601562 C 637.367188 423.136719 633.691406 426.824219 629.144531 426.824219 L 423.011719 426.824219 C 418.46875 426.824219 414.777344 423.136719 414.777344 418.601562 C 414.777344 414.054688 418.46875 410.363281 423.011719 410.363281 Z M 423.011719 453.527344 L 629.144531 453.527344 C 633.691406 453.527344 637.367188 457.214844 637.367188 461.75 C 637.367188 466.296875 633.691406 469.984375 629.144531 469.984375 L 423.011719 469.984375 C 418.46875 469.984375 414.777344 466.296875 414.777344 461.75 C 414.777344 457.214844 418.46875 453.527344 423.011719 453.527344 Z M 423.011719 496.6875 L 526.0625 496.6875 C 530.605469 496.6875 534.285156 500.367188 534.285156 504.914062 C 534.285156 509.460938 530.609375 513.136719 526.0625 513.136719 L 423.011719 513.136719 C 418.46875 513.136719 414.777344 509.460938 414.777344 504.914062 C 414.777344 500.367188 418.46875 496.6875 423.011719 496.6875 Z M 261.175781 288.125 C 261.445312 288.113281 261.714844 288.113281 261.984375 288.113281 C 262.257812 288.113281 262.527344 288.113281 262.796875 288.125 C 334.355469 288.5625 392.4375 346.925781 392.4375 418.601562 C 392.4375 490.273438 334.355469 548.628906 262.796875 549.0625 C 262.527344 549.074219 262.257812 549.074219 261.984375 549.074219 C 261.714844 549.074219 261.445312 549.074219 261.175781 549.0625 C 189.617188 548.628906 131.535156 490.273438 131.535156 418.601562 C 131.53125 346.925781 189.617188 288.558594 261.175781 288.125 Z M 261.175781 288.125 " fill-opacity="1" fill-rule="nonzero"/></g><path fill="#203b72" d="M 171.515625 487.878906 C 186.527344 507.460938 207.753906 522.042969 232.210938 528.65625 C 224.433594 516.34375 218.488281 499.367188 214.484375 480.265625 C 200.199219 482.027344 185.871094 484.566406 171.515625 487.878906 Z M 171.515625 487.878906 " fill-opacity="1" fill-rule="nonzero"/><path fill="#203b72" d="M 211.640625 373.109375 C 195.125 371.054688 178.550781 367.988281 161.964844 363.921875 C 154.308594 377.890625 149.480469 393.632812 148.28125 410.363281 L 208.503906 410.363281 C 208.8125 397.804688 209.867188 385.199219 211.640625 373.109375 Z M 211.640625 373.109375 " fill-opacity="1" fill-rule="nonzero"/><path fill="#203b72" d="M 232.207031 308.53125 C 207.753906 315.144531 186.539062 329.726562 171.527344 349.296875 C 185.882812 352.597656 200.210938 355.136719 214.496094 356.898438 C 218.5 337.808594 224.433594 320.832031 232.207031 308.53125 Z M 232.207031 308.53125 " fill-opacity="1" fill-rule="nonzero"/><path fill="#203b72" d="M 208.503906 426.824219 L 148.28125 426.824219 C 149.480469 443.539062 154.296875 459.273438 161.957031 473.226562 C 178.550781 469.164062 195.113281 466.109375 211.628906 464.027344 C 209.867188 451.964844 208.8125 439.371094 208.503906 426.824219 Z M 208.503906 426.824219 " fill-opacity="1" fill-rule="nonzero"/><path fill="#203b72" d="M 293.242188 358.742188 C 285.699219 324.261719 272.449219 304.574219 261.984375 304.574219 C 251.542969 304.574219 238.339844 324.203125 230.796875 358.578125 C 251.730469 360.304688 272.566406 360.351562 293.242188 358.742188 Z M 293.242188 358.742188 " fill-opacity="1" fill-rule="nonzero"/><path fill="#203b72" d="M 291.785156 528.65625 C 316.289062 522.019531 337.546875 507.390625 352.558594 487.75 C 338.324219 484.367188 323.980469 481.792969 309.558594 480.054688 C 305.5625 499.25 299.597656 516.308594 291.785156 528.65625 Z M 291.785156 528.65625 " fill-opacity="1" fill-rule="nonzero"/><path fill="#203b72" d="M 352.535156 349.402344 C 337.523438 329.785156 316.277344 315.171875 291.785156 308.53125 C 299.597656 320.878906 305.550781 337.925781 309.558594 357.109375 C 323.980469 355.371094 338.3125 352.796875 352.535156 349.402344 Z M 352.535156 349.402344 " fill-opacity="1" fill-rule="nonzero"/><path fill="#203b72" d="M 312.421875 463.816406 C 329.089844 465.875 345.652344 468.988281 362.074219 473.144531 C 369.695312 459.199219 374.5 443.503906 375.699219 426.824219 L 315.511719 426.824219 C 315.207031 439.300781 314.160156 451.8125 312.421875 463.816406 Z M 312.421875 463.816406 " fill-opacity="1" fill-rule="nonzero"/><path fill="#203b72" d="M 315.511719 410.363281 L 375.699219 410.363281 C 374.5 393.671875 369.695312 377.953125 362.0625 364.007812 C 345.628906 368.175781 329.078125 371.289062 312.410156 373.347656 C 314.160156 385.363281 315.207031 397.886719 315.511719 410.363281 Z M 315.511719 410.363281 " fill-opacity="1" fill-rule="nonzero"/></svg>