<svg xmlns="http://www.w3.org/2000/svg" xmlns:xlink="http://www.w3.org/1999/xlink" width="1024" zoomAndPan="magnify" viewBox="0 0 768 767.999994" height="1024" preserveAspectRatio="xMidYMid meet" version="1.0"><defs><clipPath id="9ab6c11298"><path d="M 163.300781 309 L 336 309 L 336 587 L 163.300781 587 Z M 163.300781 309 " clip-rule="nonzero"/></clipPath><clipPath id="5ed371459d"><path d="M 228 152 L 605.050781 152 L 605.050781 636 L 228 636 Z M 228 152 " clip-rule="nonzero"/></clipPath></defs><path fill="#25f4ee" d="M 384.175781 252.484375 C 384.488281 212.21875 384.175781 171.949219 384.488281 131.683594 L 466.695312 131.683594 C 466.386719 138.808594 467.316406 145.933594 468.554688 152.746094 L 408.0625 152.746094 L 408.0625 479.523438 C 408.375 493.460938 404.960938 507.398438 398.136719 519.480469 C 387.589844 538.0625 367.425781 550.761719 346.019531 552.621094 C 332.371094 553.550781 318.722656 551.074219 306.3125 544.570312 C 297.007812 539.613281 289.25 532.488281 283.046875 523.816406 C 304.140625 535.585938 331.441406 534.347656 351.914062 521.339844 C 371.457031 509.257812 384.488281 486.335938 384.488281 463.105469 C 384.175781 392.484375 384.175781 322.484375 384.175781 252.484375 Z M 519.742188 229.253906 C 531.21875 236.375 543.9375 241.953125 557.277344 245.050781 C 565.035156 246.90625 573.101562 247.527344 581.164062 247.527344 L 581.164062 266.113281 C 557.589844 260.535156 535.875 247.527344 519.742188 229.253906 Z M 519.742188 229.253906 " fill-opacity="1" fill-rule="nonzero"/><g clip-path="url(#9ab6c11298)"><path fill="#25f4ee" d="M 235.582031 331.777344 C 265.054688 313.191406 301.039062 305.757812 335.472656 310.714844 L 335.472656 330.226562 C 326.167969 330.539062 317.171875 331.777344 308.175781 333.324219 C 286.148438 337.972656 265.054688 347.265625 246.75 360.582031 C 227.207031 375.140625 212.316406 394.964844 201.769531 417.265625 C 191.84375 438.328125 186.878906 461.558594 187.1875 484.789062 C 187.1875 510.496094 194.324219 535.277344 206.421875 557.886719 C 212.007812 568.109375 218.519531 578.332031 227.207031 586.382812 C 209.835938 574.304688 195.253906 557.886719 184.398438 539.304688 C 169.816406 514.832031 162.683594 486.027344 163.300781 457.222656 C 164.234375 430.894531 171.988281 404.875 185.636719 382.265625 C 198.046875 362.132812 215.417969 344.167969 235.582031 331.777344 Z M 235.582031 331.777344 " fill-opacity="1" fill-rule="nonzero"/></g><path fill="#ffffff" d="M 408.0625 152.746094 L 469.175781 152.746094 C 471.347656 164.515625 475.691406 175.667969 480.964844 186.199219 C 489.652344 202.613281 501.75 217.171875 517.261719 226.773438 C 518.191406 227.394531 519.121094 228.324219 519.742188 229.253906 C 535.875 247.527344 557.589844 260.535156 581.476562 265.800781 C 581.785156 287.175781 581.476562 308.855469 581.476562 330.226562 C 541.148438 330.539062 500.820312 317.839844 468.246094 294.296875 C 468.246094 345.40625 468.246094 396.824219 468.554688 447.929688 C 468.554688 454.742188 468.867188 461.558594 468.554688 468.683594 C 466.695312 493.460938 458.941406 518.242188 446.53125 539.921875 C 435.984375 558.816406 421.09375 575.542969 403.722656 588.242188 C 381.386719 604.96875 353.464844 614.261719 325.546875 614.878906 C 311.277344 615.1875 297.007812 614.570312 283.046875 611.472656 C 263.503906 607.136719 244.890625 599.082031 228.449219 587.621094 L 227.515625 586.691406 C 219.453125 578.640625 212.625 568.417969 206.734375 558.195312 C 194.632812 536.207031 187.5 510.808594 187.5 485.097656 C 187.1875 461.867188 192.152344 438.328125 202.078125 417.574219 C 212.316406 395.582031 227.828125 375.449219 247.0625 360.890625 C 265.363281 347.265625 286.148438 337.972656 308.484375 333.636719 C 317.480469 331.777344 326.785156 330.847656 335.785156 330.539062 C 336.09375 338.589844 335.785156 346.953125 336.09375 354.699219 L 336.09375 396.203125 C 325.855469 392.796875 314.378906 392.796875 303.519531 395.273438 C 290.800781 398.0625 278.703125 403.945312 268.464844 412.308594 C 262.261719 417.574219 256.988281 424.078125 253.574219 431.203125 C 247.0625 443.285156 244.890625 457.53125 246.441406 471.160156 C 247.992188 484.480469 253.574219 497.179688 262.261719 507.089844 C 267.84375 514.214844 275.601562 519.480469 283.046875 524.433594 C 289.25 533.109375 297.007812 540.230469 306.3125 545.1875 C 318.410156 551.691406 332.371094 554.480469 346.019531 553.242188 C 367.425781 551.691406 387.28125 538.683594 398.136719 520.097656 C 404.960938 508.019531 408.375 494.082031 408.0625 480.140625 C 408.375 370.496094 408.0625 261.464844 408.0625 152.746094 Z M 408.0625 152.746094 " fill-opacity="1" fill-rule="nonzero"/><g clip-path="url(#5ed371459d)"><path fill="#fe2c55" d="M 468.867188 152.746094 C 476 153.058594 483.136719 152.746094 490.582031 152.746094 C 490.582031 176.597656 498.027344 200.445312 511.988281 219.960938 C 513.847656 222.4375 515.398438 224.605469 517.261719 226.773438 C 501.441406 217.171875 489.03125 202.613281 480.964844 186.199219 C 475.691406 175.976562 471.347656 164.515625 468.867188 152.746094 Z M 581.164062 265.800781 C 588.921875 267.660156 596.988281 268.28125 605.050781 268.28125 L 605.050781 351.289062 C 564.414062 351.601562 523.773438 337.972656 490.582031 314.121094 L 490.582031 478.59375 C 490.890625 490.984375 489.960938 503.371094 487.167969 515.761719 C 479.414062 552.929688 457.078125 586.382812 426.675781 608.066406 C 410.546875 619.835938 391.933594 627.886719 372.390625 632.226562 C 348.8125 637.492188 324.304688 637.179688 301.039062 631.296875 C 273.429688 624.171875 247.992188 608.996094 228.757812 587.933594 C 245.199219 599.703125 263.8125 607.445312 283.355469 611.78125 C 297.316406 614.878906 311.585938 615.808594 325.855469 615.1875 C 353.777344 614.570312 381.386719 605.277344 404.03125 588.550781 C 421.402344 575.851562 435.671875 559.125 446.839844 540.230469 C 459.25 518.550781 467.316406 494.082031 468.867188 468.992188 C 469.175781 462.175781 469.175781 455.363281 468.867188 448.238281 C 468.554688 396.824219 468.554688 345.714844 468.554688 294.609375 C 501.441406 318.148438 541.769531 330.847656 581.785156 330.539062 C 581.164062 308.855469 581.476562 287.175781 581.164062 265.800781 Z M 581.164062 265.800781 " fill-opacity="1" fill-rule="nonzero"/></g><path fill="#fe2c55" d="M 335.785156 329.917969 C 343.539062 329.917969 351.914062 330.226562 359.671875 331.46875 L 359.671875 416.644531 C 348.191406 412.617188 335.472656 412.308594 323.683594 415.097656 C 301.347656 420.054688 282.425781 437.089844 274.359375 458.769531 C 266.605469 480.140625 269.707031 504.921875 283.355469 523.195312 C 275.601562 518.550781 268.464844 512.976562 262.570312 505.851562 C 253.886719 495.9375 248.300781 482.929688 246.75 469.921875 C 245.199219 456.292969 247.371094 442.042969 253.886719 429.964844 C 257.296875 422.839844 262.882812 416.335938 268.777344 411.070312 C 278.703125 402.398438 291.113281 397.132812 303.832031 394.035156 C 314.378906 391.558594 325.855469 391.558594 336.402344 394.964844 L 336.402344 353.457031 C 335.78125 346.335938 336.402344 338.28125 335.78125 329.917969 Z M 335.785156 329.917969 " fill-opacity="1" fill-rule="nonzero"/></svg>