<svg xmlns="http://www.w3.org/2000/svg" xmlns:xlink="http://www.w3.org/1999/xlink" width="940" zoomAndPan="magnify" viewBox="0 0 705 591.000005" height="788" preserveAspectRatio="xMidYMid meet" version="1.0"><defs><clipPath id="66450b37fa"><path d="M 130.527344 73.027344 L 574.523438 73.027344 L 574.523438 517 L 130.527344 517 Z M 130.527344 73.027344 " clip-rule="nonzero"/></clipPath></defs><g clip-path="url(#66450b37fa)"><path fill="#6d1a9f" d="M 471.027344 516.96875 L 233.960938 516.96875 C 176.925781 516.96875 130.527344 470.566406 130.527344 413.53125 L 130.527344 176.464844 C 130.527344 119.429688 176.925781 73.027344 233.960938 73.027344 L 471.027344 73.027344 C 528.066406 73.027344 574.464844 119.429688 574.464844 176.464844 L 574.464844 413.53125 C 574.464844 470.566406 528.066406 516.96875 471.027344 516.96875 Z M 233.960938 90.132812 C 186.359375 90.132812 147.632812 128.863281 147.632812 176.464844 L 147.632812 413.53125 C 147.632812 461.128906 186.359375 499.859375 233.960938 499.859375 L 471.027344 499.859375 C 518.628906 499.859375 557.359375 461.132812 557.359375 413.53125 L 557.359375 176.464844 C 557.359375 128.863281 518.632812 90.132812 471.027344 90.132812 Z M 233.960938 90.132812 " fill-opacity="1" fill-rule="nonzero"/></g><path fill="#6d1a9f" d="M 446.363281 472.554688 L 258.625 472.554688 C 212.480469 472.554688 174.9375 435.011719 174.9375 388.867188 L 174.9375 241.109375 L 262.734375 241.109375 L 262.734375 258.214844 L 192.042969 258.214844 L 192.042969 388.867188 C 192.042969 425.578125 221.914062 455.449219 258.625 455.449219 L 446.363281 455.449219 C 483.078125 455.449219 512.949219 425.578125 512.949219 388.867188 L 512.949219 258.214844 L 442.257812 258.214844 L 442.257812 241.109375 L 530.054688 241.109375 L 530.054688 388.867188 C 530.054688 435.011719 492.511719 472.554688 446.363281 472.554688 Z M 446.363281 472.554688 " fill-opacity="1" fill-rule="nonzero"/><path fill="#6d1a9f" d="M 352.496094 391.984375 C 294.300781 391.984375 246.957031 344.636719 246.957031 286.441406 C 246.957031 228.246094 294.300781 180.902344 352.496094 180.902344 C 410.691406 180.902344 458.035156 228.246094 458.035156 286.441406 C 458.035156 344.636719 410.691406 391.984375 352.496094 391.984375 Z M 352.496094 198.011719 C 303.734375 198.011719 264.0625 237.679688 264.0625 286.441406 C 264.0625 335.207031 303.734375 374.875 352.496094 374.875 C 401.257812 374.875 440.929688 335.207031 440.929688 286.441406 C 440.929688 237.679688 401.257812 198.011719 352.496094 198.011719 Z M 352.496094 198.011719 " fill-opacity="1" fill-rule="nonzero"/><path fill="#6d1a9f" d="M 493.183594 183.304688 C 476.800781 183.304688 463.472656 169.976562 463.472656 153.59375 C 463.472656 137.214844 476.800781 123.886719 493.183594 123.886719 C 509.5625 123.886719 522.890625 137.214844 522.890625 153.59375 C 522.890625 169.976562 509.5625 183.304688 493.183594 183.304688 Z M 493.183594 140.992188 C 486.234375 140.992188 480.582031 146.644531 480.582031 153.59375 C 480.582031 160.542969 486.234375 166.195312 493.183594 166.195312 C 500.128906 166.195312 505.78125 160.542969 505.78125 153.59375 C 505.78125 146.644531 500.128906 140.992188 493.183594 140.992188 Z M 493.183594 140.992188 " fill-opacity="1" fill-rule="nonzero"/></svg>