<svg xmlns="http://www.w3.org/2000/svg" xmlns:xlink="http://www.w3.org/1999/xlink" width="940" zoomAndPan="magnify" viewBox="0 0 705 591.000005" height="788" preserveAspectRatio="xMidYMid meet" version="1.0"><defs><clipPath id="2f9c3f41c8"><path d="M 169.074219 82.847656 L 535.957031 82.847656 L 535.957031 416 L 169.074219 416 Z M 169.074219 82.847656 " clip-rule="nonzero"/></clipPath><clipPath id="526a9c1baa"><path d="M 169.074219 82.847656 L 535.957031 82.847656 L 535.957031 168 L 169.074219 168 Z M 169.074219 82.847656 " clip-rule="nonzero"/></clipPath><clipPath id="7aba81b87a"><path d="M 348 82.847656 L 357 82.847656 L 357 168 L 348 168 Z M 348 82.847656 " clip-rule="nonzero"/></clipPath></defs><g clip-path="url(#2f9c3f41c8)"><path fill="#3f7e9f" d="M 508.496094 415.277344 L 196.289062 415.277344 C 181.199219 415.277344 169.074219 402.902344 169.074219 387.804688 L 169.074219 110.351562 C 169.074219 95.253906 181.199219 82.878906 196.289062 82.878906 L 508.496094 82.878906 C 523.585938 82.878906 535.957031 95.253906 535.957031 110.351562 L 535.957031 387.804688 C 535.957031 402.902344 523.585938 415.277344 508.496094 415.277344 Z M 508.496094 415.277344 " fill-opacity="1" fill-rule="evenodd"/></g><path fill="#d6e3ff" d="M 177.488281 167.773438 L 177.488281 387.804688 C 177.488281 398.199219 186.144531 406.613281 196.289062 406.613281 L 508.496094 406.613281 C 518.886719 406.613281 527.296875 398.199219 527.296875 387.804688 L 527.296875 167.773438 Z M 177.488281 167.773438 " fill-opacity="1" fill-rule="evenodd"/><path fill="#b4c2da" d="M 177.488281 167.773438 L 527.296875 167.773438 L 527.296875 171.484375 L 177.488281 171.484375 Z M 177.488281 167.773438 " fill-opacity="1" fill-rule="evenodd"/><g clip-path="url(#526a9c1baa)"><path fill="#386f8c" d="M 169.074219 167.773438 L 169.074219 110.351562 C 169.074219 95.253906 181.199219 82.878906 196.289062 82.878906 L 508.496094 82.878906 C 523.585938 82.878906 535.957031 95.253906 535.957031 110.351562 L 535.957031 167.773438 Z M 169.074219 167.773438 " fill-opacity="1" fill-rule="evenodd"/></g><g clip-path="url(#7aba81b87a)"><path fill="#528ba9" d="M 348.1875 82.878906 L 356.84375 82.878906 L 356.84375 167.773438 L 348.1875 167.773438 Z M 348.1875 82.878906 " fill-opacity="1" fill-rule="evenodd"/></g><path fill="#ffcc00" d="M 225.234375 126.191406 L 201.484375 126.191406 C 195.792969 126.191406 195.792969 117.53125 201.484375 117.53125 L 225.234375 117.53125 C 230.921875 117.53125 230.921875 126.191406 225.234375 126.191406 Z M 225.234375 126.191406 " fill-opacity="1" fill-rule="evenodd"/><path fill="#2db181" d="M 274.710938 126.191406 L 250.960938 126.191406 C 245.273438 126.191406 245.273438 117.53125 250.960938 117.53125 L 274.710938 117.53125 C 280.402344 117.53125 280.402344 126.191406 274.710938 126.191406 Z M 274.710938 126.191406 " fill-opacity="1" fill-rule="evenodd"/><path fill="#fa3c48" d="M 324.1875 126.191406 L 300.441406 126.191406 C 294.75 126.191406 294.75 117.53125 300.441406 117.53125 L 324.1875 117.53125 C 329.878906 117.53125 329.878906 126.191406 324.1875 126.191406 Z M 324.1875 126.191406 " fill-opacity="1" fill-rule="evenodd"/><path fill="#2d5a72" d="M 507.011719 151.191406 L 377.128906 151.191406 C 370.945312 151.191406 365.75 145.992188 365.75 139.804688 L 365.75 110.847656 C 365.75 104.660156 370.945312 99.710938 377.128906 99.710938 L 507.011719 99.710938 C 513.195312 99.710938 518.144531 104.660156 518.144531 110.847656 L 518.144531 139.804688 C 518.144531 145.992188 513.195312 151.191406 507.011719 151.191406 Z M 507.011719 151.191406 " fill-opacity="1" fill-rule="evenodd"/><path fill="#528ba9" d="M 492.414062 129.65625 L 391.726562 129.65625 C 386.035156 129.65625 386.035156 120.996094 391.726562 120.996094 L 492.414062 120.996094 C 498.105469 120.996094 498.105469 129.65625 492.414062 129.65625 Z M 492.414062 129.65625 " fill-opacity="1" fill-rule="evenodd"/><path fill="#4a4153" d="M 446.398438 308.601562 C 426.363281 308.601562 408.054688 299.941406 395.4375 284.59375 L 258.136719 284.59375 L 258.136719 199.703125 L 395.4375 199.703125 C 422.402344 167.277344 472.375 168.019531 498.351562 200.9375 C 500.824219 203.910156 498.597656 208.859375 494.394531 208.859375 L 451.59375 208.859375 C 448.625 208.859375 446.152344 211.332031 446.152344 214.304688 L 446.152344 269.992188 C 446.152344 272.960938 448.625 275.4375 451.59375 275.4375 L 494.394531 275.4375 C 498.597656 275.4375 500.824219 280.140625 498.351562 283.355469 C 485.488281 299.445312 466.6875 308.601562 446.398438 308.601562 Z M 446.398438 308.601562 " fill-opacity="1" fill-rule="evenodd"/><path fill="#d7d7d7" d="M 381.089844 246.972656 L 278.917969 246.972656 C 272.238281 246.972656 272.238281 237.074219 278.917969 237.074219 L 381.089844 237.074219 C 387.769531 237.074219 387.769531 246.972656 381.089844 246.972656 Z M 381.089844 246.972656 " fill-opacity="1" fill-rule="evenodd"/><path fill="#4182c8" d="M 362.78125 505.121094 C 330.375 505.121094 330.375 507.347656 326.910156 477.894531 C 325.671875 477.152344 324.1875 476.65625 322.703125 475.914062 C 299.449219 494.722656 301.183594 492.746094 278.175781 469.972656 C 268.03125 459.578125 280.152344 448.195312 286.832031 440.027344 C 286.089844 438.542969 285.347656 437.054688 284.855469 435.820312 C 255.414062 432.355469 257.640625 432.355469 257.640625 399.929688 C 257.640625 385.328125 274.464844 386.070312 284.855469 384.832031 C 285.597656 383.347656 286.089844 381.863281 286.832031 380.625 C 268.277344 357.113281 270.011719 358.84375 292.769531 336.074219 C 303.160156 325.679688 314.542969 337.808594 322.703125 344.492188 C 324.1875 343.746094 325.671875 343.253906 327.15625 342.757812 C 330.375 313.058594 330.375 315.53125 362.78125 315.53125 C 377.378906 315.53125 376.882812 332.113281 378.121094 342.511719 C 379.355469 343.253906 380.839844 343.746094 382.324219 344.492188 C 405.582031 325.679688 403.847656 327.660156 426.855469 350.429688 C 437.246094 360.824219 424.878906 372.210938 418.445312 380.378906 C 418.941406 381.863281 419.683594 383.347656 420.175781 384.832031 C 449.617188 388.050781 447.390625 388.050781 447.390625 420.472656 C 447.390625 435.078125 430.8125 434.582031 420.175781 435.820312 C 419.683594 437.054688 418.941406 438.542969 418.445312 440.027344 C 437 463.292969 435.265625 461.558594 412.261719 484.578125 C 401.871094 494.972656 390.738281 482.597656 382.324219 476.160156 C 380.839844 476.65625 379.355469 477.398438 378.121094 477.894531 C 376.882812 488.535156 377.378906 505.121094 362.78125 505.121094 Z M 362.78125 505.121094 " fill-opacity="1" fill-rule="evenodd"/><path fill="#3c6cba" d="M 352.390625 457.105469 C 326.664062 457.105469 305.636719 436.066406 305.636719 410.324219 C 305.636719 384.339844 326.664062 363.300781 352.390625 363.300781 C 378.367188 363.300781 399.394531 384.339844 399.394531 410.324219 C 399.394531 436.066406 378.367188 457.105469 352.390625 457.105469 Z M 352.390625 457.105469 " fill-opacity="1" fill-rule="evenodd"/><path fill="#fefefe" d="M 352.390625 377.65625 C 309.59375 377.65625 309.59375 442.75 352.390625 442.75 C 395.4375 442.75 395.4375 377.65625 352.390625 377.65625 Z M 352.390625 377.65625 " fill-opacity="1" fill-rule="evenodd"/><path fill="#d7d7d7" d="M 248.242188 199.703125 L 233.890625 199.703125 C 218.304688 199.703125 205.691406 212.324219 205.691406 228.164062 L 205.691406 256.132812 C 205.691406 271.972656 218.304688 284.59375 233.890625 284.59375 L 258.136719 284.59375 L 258.136719 199.703125 Z M 248.242188 199.703125 " fill-opacity="1" fill-rule="evenodd"/></svg>